<svg width="1024" height="720" viewBox="0 0 800 600" fill="none" xmlns="http://www.w3.org/2000/svg">
<path d="M442.718 531.857C585.647 531.857 710.911 472.889 709.351 313.83C707.79 154.771 596.051 207.926 441.706 112.95C287.362 17.974 91.933 77.642 90.647 256.573C89.362 435.503 195.647 531.857 442.718 531.857Z" fill="#ECECEC"/>
<path d="M129.341 412.08C129.996 413.101 130.668 414.109 131.341 415.117V136.177C130.667 136.995 130 137.821 129.341 138.653V412.08Z" fill="#DAE1E7"/>
<path d="M196.756 477.84C197.413 478.252 198.092 478.648 198.756 479.055V86.085C198.087 86.376 197.42 86.67 196.756 86.967V477.84Z" fill="#DAE1E7"/>
<path d="M266.171 69.18C265.503 69.242 264.837 69.308 264.171 69.375V508.409C264.84 508.623 265.498 508.846 266.171 509.056V69.18Z" fill="#DAE1E7"/>
<path d="M331.585 524.001C332.25 524.105 332.916 524.209 333.585 524.311V71.863C332.918 71.752 332.252 71.647 331.585 71.54V524.001Z" fill="#DAE1E7"/>
<path d="M401 91.803C400.334 91.518 399.667 91.24 399 90.959V530.776C399.662 530.81 400.336 530.835 401 530.866V91.803Z" fill="#DAE1E7"/>
<path d="M466.415 531.291C467.082 531.259 467.75 531.231 468.415 531.197V128.203C467.749 127.852 467.083 127.501 466.415 127.144V531.291Z" fill="#DAE1E7"/>
<path d="M535.829 157.662C535.164 157.424 534.497 157.183 533.829 156.94V522.74C534.498 522.595 535.162 522.443 535.829 522.295V157.662Z" fill="#DAE1E7"/>
<path d="M603.244 179.226C602.58 179.018 601.914 178.81 601.244 178.601V499.703C601.916 499.369 602.577 499.022 603.244 498.682V179.226Z" fill="#DAE1E7"/>
<path d="M668.659 446.296C669.329 445.449 670.004 444.607 670.659 443.746V209.787C670 209.268 669.334 208.756 668.659 208.252V446.296Z" fill="#DAE1E7"/>
<path d="M138.513 398.898C132.09 394.31 122.914 401.651 122.914 401.651C122.914 401.651 134.028 397.093 142.489 410.214L138.513 398.898Z" fill="#5C7C0E"/>
<path d="M137.289 445.693C137.289 432.221 142.488 413.884 138.513 398.898C138.513 398.898 147.688 405.627 150.44 420.307C153.193 434.988 153.499 462.208 159.922 470.772C159.922 470.772 137.289 460.067 137.289 445.693Z" fill="#76A21E"/>
<path d="M182.555 519.137C182.555 519.137 179.802 518.179 174.603 492.793C169.404 467.408 161.146 463.126 151.053 458.232C140.96 453.338 137.289 445.693 137.289 445.693C137.289 445.693 137.595 458.538 147.994 469.243C158.393 479.948 162.063 479.336 166.039 488.512C170.015 497.687 171.85 507.25 180.72 519.137H182.555Z" fill="#5C7C0E"/>
<path d="M189.804 453.276C189.804 453.276 185.002 468.937 184.696 478.724C184.39 488.511 185.001 504.191 182.555 519.136C182.555 519.136 177.967 488.817 173.991 476.889C170.015 464.961 180.231 452.601 189.804 453.276Z" fill="#5C7C0E"/>
<path d="M180.161 462.82C194.378 449.415 192.647 452.727 185.179 439.576C182.669 435.156 186.91 425.055 186.76 420.613C186.464 411.839 184.189 408.858 185.002 401.344C186.224 390.028 180.72 382.381 180.72 382.381C180.72 382.381 180.72 390.945 172.156 403.802C163.592 416.657 169.098 428.565 167.568 447.528C166.039 466.49 166.956 475.36 173.631 488.437C180.306 501.515 180.72 519.136 180.72 519.136H182.555C181.025 476.359 173.673 468.938 180.161 462.82Z" fill="#76A21E"/>
<path d="M239.873 420.613C243.85 421.837 241.709 436.517 241.709 436.517C241.709 436.517 237.427 422.142 229.169 422.142L239.873 420.613Z" fill="#5C7C0E"/>
<path d="M181.457 519.137C181.457 519.137 186.118 505.333 186.999 496.77C187.88 488.207 178.398 483.006 189.409 467.714C200.419 452.422 198.89 452.728 203.172 437.129C207.454 421.531 209.9 422.143 220.911 420.613C231.922 419.084 239.873 420.613 239.873 420.613C239.873 420.613 229.475 423.977 225.499 428.259C221.522 432.541 221.522 443.551 218.158 454.562C214.794 465.573 205.007 471.73 203.172 482.415C201.337 493.1 193.69 499.828 190.326 504.722C186.962 509.616 183.598 519.137 183.598 519.137H181.457Z" fill="#76A21E"/>
<path d="M203.172 482.415C205.007 471.73 214.794 465.573 218.158 454.562C221.523 443.551 221.523 432.541 225.499 428.259C226.155 427.552 226.99 426.87 227.921 426.224C227.92 426.224 217.546 428.871 214.183 434.834C210.818 440.799 210.206 452.727 208.677 459.761C207.148 466.795 202.561 474.136 194.303 478.724C186.044 483.311 192.638 501.719 190.326 504.721C193.691 499.828 201.337 493.1 203.172 482.415Z" fill="#5C7C0E"/>
<path d="M181.457 519.137C181.457 519.137 170.703 485.759 156.252 480.713C141.801 475.666 146.389 493.787 139.966 500.899C133.543 508.01 128.267 507.092 127.808 516.726C127.35 526.361 136.066 534.619 136.066 534.619C136.066 534.619 130.102 520.626 136.295 516.497C142.488 512.368 147.076 511.035 151.664 507.228C156.252 503.422 154.876 495.546 160.84 494.323C166.804 493.1 180.72 519.137 180.72 519.137H181.457Z" fill="#76A21E"/>
<path d="M180.72 519.137C180.72 519.137 177.847 496.276 170.015 490.347C162.184 484.418 157.053 497 157.053 497C157.053 497 161.603 492.739 166.627 497.99C172.935 504.586 179.879 519.136 179.879 519.136H180.72V519.137Z" fill="#5C7C0E"/>
<path d="M136.295 516.496C142.488 512.367 147.076 511.034 151.664 507.227C151.962 506.98 152.234 506.714 152.485 506.436C151.664 507.227 143.75 505.83 138.016 509.958C132.281 514.087 129.987 522.689 136.066 534.617C136.066 534.618 130.102 520.625 136.295 516.496Z" fill="#5C7C0E"/>
<path d="M182.555 519.137C182.555 519.137 181.468 502.756 190.308 495.175C199.147 487.594 201.193 469.654 207.166 464.517C213.14 459.38 229.169 464.517 229.169 464.517C229.169 464.517 221.627 468.785 220.25 473.831C218.874 478.877 217.498 492.411 212.681 497.458C207.864 502.504 188.367 504.382 186.531 507.228C184.696 510.074 183.598 519.137 183.598 519.137" fill="#5C7C0E"/>
<path d="M207.166 464.517C207.166 464.517 211.075 459.61 218.874 460.756C226.673 461.903 230.572 464.226 231.031 465.473C231.49 466.72 227.307 476.21 229.169 479.838C231.031 483.465 227.921 490.686 227.921 490.686C227.921 490.686 224.842 481.028 218.99 479.838C213.14 478.648 214.727 461.167 207.166 464.517Z" fill="#76A21E"/>
<path d="M201.289 488.759C203.202 482.126 201.031 475.777 203.089 470.776C199.656 478.345 196.832 489.58 190.308 495.175C189.106 496.205 188.095 497.401 187.232 498.693C188.491 496.537 199.376 495.394 201.289 488.759Z" fill="#76A21E"/>
<path d="M163.232 506.521L165.26 533.789C165.556 537.769 168.872 540.848 172.863 540.848H192.215C196.207 540.848 199.522 537.77 199.818 533.789L201.846 506.521H163.232Z" fill="#DAE1E7"/>
<path d="M183.704 540.847H192.216C196.207 540.847 199.522 537.769 199.818 533.788L201.847 506.52H194.885C192.923 515.089 189.119 529.588 183.704 540.847Z" fill="#929AAB"/>
<path d="M163.785 513.945H201.294" stroke="#929AAB" stroke-miterlimit="10"/>
<path d="M458.81 347.882H446.276V408.226H458.81V347.882Z" fill="#FED190"/>
<path d="M458.81 347.882H446.276V365.786H458.81V347.882Z" fill="#EFBD7D"/>
<path d="M217.912 347.882H205.377V408.226H217.912V347.882Z" fill="#FED190"/>
<path d="M217.912 347.882H205.377V365.786H217.912V347.882Z" fill="#EFBD7D"/>
<path d="M515.967 69.452H148.222V341.296H515.967V69.452Z" fill="#0E1F28"/>
<path d="M507.967 77.452H156.222V333.295H507.967V77.452Z" fill="#E4F9FF"/>
<path d="M398.678 256.328C398.678 256.328 374.682 266.512 362.578 283.226C350.476 299.94 341.904 392.512 341.904 392.512C341.904 392.512 356.459 393.939 382.182 408.225C407.904 422.512 426.22 427.151 454.348 420.974C482.476 414.798 480.34 369.757 500.066 363.824C500.066 363.824 485.047 335.085 467.904 311.941C450.761 288.798 421.013 270.79 421.013 270.79L398.678 256.328Z" fill="#071419"/>
<path d="M435.226 213.637C435.226 213.637 436.672 219.137 440.851 222.494C445.029 225.852 436.351 229.066 436.351 229.066L435.226 213.637Z" fill="#FFADA5"/>
<path d="M462.829 370.34L413.09 378.875C413.09 378.875 423.065 405.51 445.436 408.226C467.806 410.941 526.949 406.227 526.949 406.227L550.521 383.513C545.624 375.354 462.829 370.34 462.829 370.34Z" fill="#FFADA5"/>
<path d="M550.521 383.513L520.691 396.993C520.691 396.993 510.93 416.719 510.77 437.591C510.61 458.463 507.637 502.854 507.637 502.854L524.967 504.984C524.967 504.983 552.486 393.313 550.521 383.513Z" fill="#FFADA5"/>
<path d="M405.27 229.935L396.914 263.395L421.341 277.679C421.341 277.679 419.413 248.653 423.27 242.155L405.27 229.935Z" fill="#FFCFB6"/>
<path d="M405.27 229.935L400.905 247.412C408.118 250.583 415.913 251.128 421.291 251.005C421.646 247.126 422.258 243.861 423.27 242.155L405.27 229.935Z" fill="#FFADA5"/>
<path d="M397.7 260.241C397.7 260.241 373.769 277.871 385.341 305.084C396.913 332.296 414.614 383.229 414.614 383.229L462.829 370.34C462.829 370.34 458.589 350.737 456.02 332.682C455.164 326.664 463.734 311.468 456.663 305.244C434.938 286.125 421.123 273.559 421.123 273.559L397.7 260.241Z" fill="#FFADA5"/>
<path d="M413.09 378.875C413.09 378.875 423.065 405.51 445.436 408.226C467.806 410.941 526.95 406.227 526.95 406.227C526.95 406.227 524.378 428.084 531.235 447.798C538.092 467.512 550.95 510.14 550.95 510.14L567.235 506.512C567.235 506.512 555.664 392.084 550.521 383.513C545.625 375.354 462.83 370.34 462.83 370.34L413.09 378.875Z" fill="#FFCFB6"/>
<path d="M437.77 409.068C448.351 411.481 504.462 410.897 504.462 410.897V453.797C516.908 453.797 529.362 452.739 540.02 451.43C535.947 438.734 528.362 413.924 529.645 409.068C531.386 402.481 538.521 399.395 538.521 399.395C538.521 399.395 455.904 408.797 440.476 403.655C425.047 398.511 414.615 383.228 414.615 383.228C414.615 383.228 427.189 406.655 437.77 409.068Z" fill="#512B58"/>
<path d="M393.813 202.219C400.962 189.162 420.522 184.688 430.675 196.643C440.829 208.599 439.135 246.483 431.558 248.491C423.981 250.5 403.347 246.222 396.76 230.652C390.174 215.081 390.381 208.488 393.813 202.219Z" fill="#FFCFB6"/>
<path d="M426.064 215.565C426.064 215.565 428.796 210.503 431.528 210.261C434.26 210.021 435.225 211.065 435.225 211.065L434.581 213.636C434.581 213.636 432.733 211.789 431.126 212.351C429.52 212.915 426.064 215.565 426.064 215.565Z" fill="#F7931E"/>
<path d="M433.778 215.565C433.379 215.565 433.055 216.338 433.055 217.293C433.055 218.248 433.378 219.021 433.778 219.021C434.178 219.021 434.502 218.248 434.502 217.293C434.502 216.338 434.178 215.565 433.778 215.565Z" fill="#43D8C9"/>
<path d="M436.869 237.295C437.089 235.969 437.271 234.568 437.412 233.108L429.118 232.039C429.118 232.039 430.887 236.813 436.869 237.295Z" fill="white"/>
<path d="M567.234 506.512C567.234 506.512 573.262 513.937 579.118 520.227C584.903 526.441 599.762 535.227 597.833 537.798C595.905 540.369 553.617 529.438 548.261 524.727C545.952 522.696 549.85 506.512 549.85 506.512H567.234Z" fill="#FFCFB6"/>
<path d="M549.002 510.397L567.234 518.297C567.234 518.297 565.014 510.553 570.245 510.139C570.245 510.139 584.475 522.368 591.975 526.226C599.475 530.084 598.004 538.847 598.004 538.847C598.004 538.847 567.331 534.797 546.331 525.368C546.332 525.369 545.476 520.012 549.002 510.397Z" fill="#0E1F28"/>
<path d="M591.976 526.227C590.858 525.652 589.588 524.888 588.242 524.01C583.787 526.728 582.333 532.656 582.333 532.656C567.679 529.539 553.146 524.494 546.31 521.976C546.152 524.192 546.333 525.37 546.333 525.37C567.333 534.799 598.006 538.849 598.006 538.849C598.006 538.849 599.476 530.084 591.976 526.227Z" fill="white"/>
<path d="M524.891 504.983C524.891 504.983 529.964 513.09 535.005 520.05C539.985 526.926 553.655 537.467 551.426 539.782C549.197 542.097 508.568 526.066 503.828 520.735C501.787 518.436 507.637 502.852 507.637 502.852L524.891 504.983Z" fill="#FFADA5"/>
<path d="M506.319 506.605L523.447 516.68C523.447 516.68 522.192 508.722 527.434 508.952C527.434 508.952 540.058 522.834 547.029 527.58C554 532.327 551.467 540.846 551.467 540.846C551.467 540.846 521.523 533.068 501.836 521.137C501.836 521.138 501.642 515.716 506.319 506.605Z" fill="#0E1F28"/>
<path d="M547.029 527.581C545.991 526.873 544.824 525.96 543.593 524.923C538.84 527.074 536.671 532.779 536.671 532.779C522.509 527.889 508.703 521.103 502.228 517.767C501.8 519.946 501.835 521.137 501.835 521.137C521.522 533.068 551.465 540.846 551.465 540.846C551.465 540.846 554.001 532.328 547.029 527.581Z" fill="white"/>
<path d="M524.121 261.696L488.044 297.773C487.186 298.632 487.186 300.023 488.044 300.882C488.902 301.74 490.294 301.74 491.152 300.882L527.23 264.803C528.088 263.945 528.088 262.553 527.23 261.695C526.372 260.837 524.979 260.837 524.121 261.696Z" fill="#0B0B0D"/>
<path d="M520.347 272.106C520.347 272.106 520.018 271.144 517.856 271.884C515.694 272.625 502.007 288.018 502.007 288.018L494.898 292.091C494.898 292.091 501.44 283.898 502.766 280.362C504.092 276.827 502.275 274.322 502.275 274.322L496.334 280.362C496.334 280.362 488.259 287.442 487.193 289.82C486.128 292.197 484.272 305.206 484.272 305.206L494.483 312.02C494.483 312.02 514.144 300.526 514.766 298.032C515.389 295.538 517.908 288.505 517.908 288.505C517.908 288.505 519.241 284.56 519.709 282.79C520.178 281.02 519.153 275.283 519.153 275.283L520.347 272.106Z" fill="#FFCFB6"/>
<path d="M398.489 277.52C398.489 277.52 412.33 283.689 423.269 305.207C434.208 326.725 442.739 342.148 442.739 342.148L484.271 305.207L498.559 309.583C498.559 309.583 461.636 370.546 438.606 374.498C438.606 374.498 415.035 358.738 392.023 317.299C392.023 317.298 391.646 293.348 398.489 277.52Z" fill="#FFCFB6"/>
<path d="M438.606 374.497C461.636 370.545 498.559 309.583 498.559 309.583C498.559 309.583 448.28 365.495 438.606 365.94C428.932 366.386 392.023 317.297 392.023 317.297C415.035 358.736 438.606 374.497 438.606 374.497Z" fill="#FFADA5"/>
<path d="M407.689 232.039C408.069 237.143 412.082 276.444 433.778 294.139C433.778 294.139 418.189 291.584 412.403 283.869C406.618 276.155 404.047 226.454 404.047 226.454L407.689 232.039Z" fill="#F15A24"/>
<path d="M460.104 500.542C450.461 482.93 451.104 408.226 451.104 408.226H443.373H442.104H434.373C434.373 408.226 435.017 482.93 425.373 500.542C415.73 518.154 381.017 530.614 381.017 538.848H442.105H443.374H504.463C504.462 530.614 469.747 518.154 460.104 500.542Z" fill="#DAE1E7"/>
<path d="M460.104 500.542C450.461 482.93 451.104 408.226 451.104 408.226H446.931C446.556 431.125 446.287 491.656 453.546 505.656C458.63 515.462 466.997 528.959 473.315 538.848H504.461C504.462 530.614 469.747 518.154 460.104 500.542Z" fill="#929AAB"/>
<path d="M369.934 277.916C341.003 301.065 358.788 431.727 403.251 431.727H500.385C527.746 431.727 534.602 378.231 526.393 367.801C518.185 357.372 451.514 372.494 437.833 356.42C423.423 339.487 400.553 253.416 369.934 277.916Z" fill="#FFBC36"/>
<path d="M521.009 417.646C511.327 423.494 451.618 427.227 427.19 412.65C402.762 398.073 379.618 281.29 368.877 281.29L366.298 281.702C342.67 312.623 360.8 431.727 403.252 431.727H500.386C509.44 431.727 516.248 425.864 521.009 417.646Z" fill="#F0A500"/>
<path d="M438.606 423.378C460.329 420.843 451.594 384.147 456.737 363.564C461.879 342.981 471.5 316.565 471.5 316.565C470.257 315.034 469.052 313.492 467.903 311.94C450.76 288.798 421.013 270.79 421.013 270.79L398.677 256.329C398.677 256.329 374.681 266.513 362.578 283.228C350.475 299.941 341.903 392.513 341.903 392.513C341.903 392.513 356.073 394.656 382.181 408.227C414.614 425.084 438.606 423.378 438.606 423.378Z" fill="#0E1F28"/>
<path d="M469.598 314.17C459.766 326.097 443.462 347.163 438.607 361.227C431.503 381.798 430.645 408.226 430.645 408.226C408.723 391.795 414.615 329.08 414.615 329.08C403.663 351.791 400.839 405.369 400.839 405.369C394.11 401.94 368.568 335.941 371.892 305.084C374.37 282.072 391.029 264.308 399.343 256.758L398.679 256.328C398.679 256.328 374.683 266.512 362.579 283.227C350.477 299.941 341.905 392.512 341.905 392.512C341.905 392.512 356.075 394.655 382.183 408.226C414.616 425.084 438.608 423.377 438.608 423.377C460.332 420.843 451.596 384.147 456.739 363.564C461.882 342.981 471.502 316.567 471.502 316.567C470.854 315.77 470.221 314.971 469.598 314.17Z" fill="#071419"/>
<path d="M437.77 195.137C439.377 201.451 415.842 213.166 415.842 213.166C415.842 213.166 413.003 227.681 407.202 234.087C407.202 234.087 411.647 253.419 404.282 259.162C396.916 264.906 388.559 263.893 379.238 273.56C369.916 283.227 365.971 298.656 365.971 298.656C365.971 298.656 349.988 283.57 351.273 268.13C352.559 252.691 367.286 242.502 373.966 231.101C380.454 220.03 375.439 195.813 385.081 186.966C394.726 178.119 436.163 188.822 437.77 195.137Z" fill="#F7931E"/>
<path d="M407.202 234.087C413.003 227.681 415.842 213.166 415.842 213.166C415.842 213.166 423.468 209.368 429.742 204.933C417.045 206.747 400.904 200.829 400.904 200.829C400.904 200.829 384.275 219.515 377.148 220.315C376.557 224.462 375.651 228.227 373.967 231.101C367.286 242.502 352.559 252.691 351.273 268.13C349.988 283.569 365.972 298.655 365.972 298.655C365.972 298.655 369.917 283.227 379.238 273.56C388.559 263.893 396.917 264.905 404.282 259.162C411.647 253.419 407.202 234.087 407.202 234.087Z" fill="#F15A24"/>
<path d="M412.403 225.849C412.403 225.849 406.297 211.713 401.797 218.381C397.297 225.048 410.09 236.298 410.09 236.298L412.403 225.849Z" fill="#FFCFB6"/>
<path d="M410.091 227.084C410.091 227.084 405.653 216.905 404.047 220.548C402.44 224.19 408.547 229.065 408.547 229.065L410.091 227.084Z" fill="#FFADA5"/>
<path d="M532.772 341.296H131.418V356.508H532.772V341.296Z" fill="#FED190"/>
<g opacity="0.5">
<g opacity="0.5">
<path opacity="0.5" d="M308.866 77.452L263.321 333.295H270.046L315.591 77.452H308.866Z" fill="white"/>
<path opacity="0.5" d="M321.806 77.452L276.262 333.295H291.491L337.035 77.452H321.806Z" fill="white"/>
<path opacity="0.5" d="M424.092 77.452L378.548 333.295H393.777L439.32 77.452H424.092Z" fill="white"/>
</g>
</g>
<path d="M131.418 341.296L532.771 356.508V341.296H131.418Z" fill="#EFBD7D"/>
<path d="M256.88 158.404C256.88 158.404 252.71 170.954 260.405 179.49C268.101 188.027 257.872 192.543 265.676 199.405C273.48 206.267 272.338 213.765 247.419 214.225C222.5 214.685 230.894 196.598 231.725 174.423C232.556 152.248 239.271 146.869 249.827 150.611C260.384 154.353 256.88 158.404 256.88 158.404Z" fill="#DD9A43"/>
<path d="M251.111 198.801C251.111 198.801 260.695 201.826 269.95 218.24C279.205 234.654 288.41 258.326 288.41 258.326C288.41 258.326 289.949 287.583 280.719 287.904C271.491 288.225 244.121 236.665 244.121 236.665C244.121 236.665 238.95 210.717 251.111 198.801Z" fill="#FFADA5"/>
<path d="M245.578 194.353C245.578 194.353 260.12 197.511 283.322 233.099C283.322 233.099 270.31 263.175 254.186 270.128C254.186 270.128 240.536 247.226 241.227 227.225C241.92 207.225 245.578 194.353 245.578 194.353Z" fill="#43D8C9"/>
<path d="M220.561 289.26C220.561 289.26 217.273 300.552 221.721 332.103C226.169 363.654 239.682 393.868 236.777 405.439C233.873 417.011 228.369 449.473 243.049 516.492H260.526C260.526 516.492 264.128 436.69 267.19 392.458C270.251 348.226 265.186 289.983 265.186 289.983L220.561 289.26Z" fill="#FFCFB6"/>
<path d="M265.186 289.981L220.561 289.259C220.561 289.259 217.273 300.551 221.721 332.102C226.169 363.653 239.682 393.867 236.777 405.439C234.251 415.501 229.767 441.373 238.292 492.014C234.669 425.856 244.063 411.223 243.984 405.224C243.905 399.224 239.612 366.509 245.777 356.367C249.627 350.034 260.365 343.872 267.888 340.136C267.142 312.483 265.186 289.981 265.186 289.981Z" fill="#FFADA5"/>
<path d="M205.547 289.26C205.547 289.26 197.565 300.552 196.492 332.103C195.42 363.654 204.256 393.868 199.326 405.439C194.398 417.011 187.966 449.473 190.92 516.492H208.587C208.587 516.492 223.318 436.69 234.118 392.458C244.92 348.226 250.046 289.983 250.046 289.983L205.547 289.26Z" fill="#FFCFB6"/>
<path d="M243.704 341.934C247.978 313.466 250.046 289.982 250.046 289.982L205.548 289.26C205.548 289.26 197.564 300.552 196.492 332.103C195.42 363.654 204.256 393.868 199.326 405.44C196.311 412.518 192.737 427.434 191.09 453.276C197.498 429.772 207.205 404.846 207.205 402.876C207.205 400.099 197.695 361.049 205.491 354.643C212.863 348.583 240.699 342.569 243.704 341.934Z" fill="#FFADA5"/>
<path d="M265.658 289.981C265.658 289.981 269.95 310.082 273.298 338.285C273.298 338.285 251.707 344.02 212.956 338.836C212.956 338.836 211.202 304.865 220.56 289.259L265.658 289.981Z" fill="#93DEFF"/>
<path d="M251.111 298.082L253.646 289.789L220.56 289.26C211.202 304.865 212.956 338.837 212.956 338.837C232.041 341.39 246.953 341.293 257.183 340.538L251.111 298.082Z" fill="#75BFD8"/>
<path d="M272.623 332.803C272.623 332.803 258.874 337.184 233.334 336.276" stroke="#75BFD8" stroke-miterlimit="10"/>
<path d="M205.547 289.26C205.547 289.26 195.33 302.661 192.33 336.519C192.33 336.519 217.361 340.963 247.937 340.963C247.937 340.963 249.161 313.899 251.111 292.49L205.547 289.26Z" fill="#93DEFF"/>
<path d="M312.064 219.05C312.064 219.05 317.338 205.089 319.02 203.421C320.703 201.752 332.944 200.588 332.944 200.588C332.944 200.588 335.152 203.321 333.124 205.289C333.124 205.289 335.209 207.787 332.71 210.349C332.71 210.349 332.734 213.752 330.487 215.061C330.487 215.061 330.016 218.391 328.869 219.263C327.72 220.134 327.264 224.743 321.652 226.332L312.064 219.05Z" fill="#FFADA5"/>
<path d="M325.374 172.035L322.984 224.495C322.959 225.053 323.391 225.525 323.948 225.551H323.949C324.507 225.576 324.979 225.144 325.005 224.587L327.394 172.127C327.419 171.569 326.987 171.098 326.431 171.072H326.429C325.871 171.047 325.399 171.477 325.374 172.035Z" fill="#03051E"/>
<path d="M326.568 195.987L326.593 195.426L332.572 195.699C332.753 195.707 332.906 195.567 332.915 195.386V195.385C332.922 195.204 332.783 195.05 332.602 195.043L326.624 194.77L326.649 194.21L332.628 194.482C332.808 194.491 332.962 194.35 332.969 194.17V194.169C332.978 193.988 332.838 193.835 332.657 193.826L326.679 193.553L326.705 192.994L332.682 193.265C332.864 193.274 333.017 193.134 333.025 192.953V192.952C333.034 192.771 332.893 192.618 332.713 192.609L326.734 192.338L326.76 191.777L332.738 192.049C332.919 192.057 333.072 191.918 333.081 191.737V191.735C333.089 191.554 332.949 191.401 332.768 191.393L326.79 191.121L326.815 190.56L332.794 190.833C332.974 190.841 333.128 190.701 333.135 190.52L333.136 190.519C333.144 190.339 333.005 190.185 332.823 190.176L326.845 189.904L326.871 189.344L332.849 189.616C333.03 189.625 333.183 189.485 333.191 189.303V189.302C333.2 189.122 333.059 188.968 332.879 188.96L326.901 188.688L326.926 188.128L332.904 188.4C333.085 188.408 333.238 188.268 333.247 188.088V188.086C333.255 187.905 333.115 187.752 332.934 187.744L326.956 187.471L326.981 186.911L332.96 187.183C333.14 187.192 333.294 187.051 333.302 186.871V186.87C333.31 186.688 333.171 186.535 332.99 186.527L327.011 186.255L327.037 185.695L333.015 185.966C333.196 185.975 333.349 185.835 333.357 185.654V185.653C333.366 185.472 333.226 185.319 333.045 185.31L327.067 185.039L327.092 184.478L333.07 184.751C333.252 184.758 333.405 184.619 333.413 184.438V184.436C333.422 184.256 333.281 184.102 333.1 184.094L327.122 183.822L327.148 183.261L333.126 183.534C333.306 183.542 333.46 183.402 333.468 183.221V183.22C333.476 183.039 333.337 182.885 333.156 182.878L327.177 182.605L327.203 182.046L333.181 182.317C333.362 182.326 333.515 182.185 333.524 182.005V182.004C333.532 181.823 333.392 181.67 333.211 181.661L327.233 181.389L327.258 180.829L333.237 181.101C333.418 181.109 333.571 180.969 333.579 180.788V180.786C333.588 180.605 333.447 180.452 333.266 180.444L327.289 180.172L327.314 179.611L333.292 179.883C333.473 179.891 333.627 179.752 333.634 179.571V179.57C333.642 179.388 333.503 179.235 333.322 179.227L327.343 178.955L327.369 178.395L333.347 178.667C333.528 178.675 333.681 178.535 333.69 178.354V178.353C333.698 178.173 333.558 178.019 333.378 178.01L327.399 177.738L327.424 177.178L333.403 177.451C333.584 177.459 333.737 177.319 333.745 177.137V177.136C333.754 176.956 333.614 176.802 333.432 176.795L327.455 176.522L327.48 175.962L333.458 176.234C333.639 176.242 333.793 176.102 333.8 175.922V175.921C333.809 175.739 333.669 175.586 333.488 175.578L327.51 175.305L327.536 174.745L333.513 175.017C333.694 175.026 333.847 174.885 333.856 174.705V174.704C333.864 174.523 333.724 174.37 333.544 174.361L327.565 174.089L327.59 173.529L333.569 173.801C333.75 173.809 333.903 173.67 333.912 173.488V173.487C333.92 173.306 333.78 173.153 333.599 173.144L327.621 172.873L327.646 172.312L333.625 172.585C333.805 172.592 333.959 172.453 333.966 172.272V172.27C333.975 172.09 333.835 171.936 333.654 171.928L327.676 171.656L327.702 171.095L333.679 171.368C333.861 171.377 334.014 171.236 334.022 171.055V171.054C334.031 170.874 333.89 170.72 333.71 170.712L327.731 170.439L327.757 169.88L333.735 170.152C333.916 170.16 334.069 170.02 334.078 169.839V169.838C334.086 169.657 333.946 169.504 333.765 169.495L327.787 169.223L327.812 168.663L333.791 168.935C333.971 168.943 334.125 168.803 334.132 168.623L334.133 168.621C334.141 168.44 334.002 168.287 333.82 168.279L327.842 168.007L327.868 167.446L333.846 167.718C334.027 167.727 334.18 167.587 334.188 167.406V167.405C334.197 167.224 334.056 167.071 333.876 167.062L327.898 166.79L327.923 166.23L333.901 166.502C334.082 166.51 334.235 166.371 334.244 166.189V166.188C334.252 166.007 334.112 165.854 333.931 165.845L327.953 165.574L327.978 165.013L333.957 165.286C334.137 165.294 334.291 165.154 334.299 164.973V164.971C334.307 164.791 334.168 164.637 333.987 164.63L328.008 164.357L328.034 163.797L334.012 164.069C334.193 164.077 334.346 163.937 334.354 163.757V163.756C334.363 163.574 334.223 163.421 334.042 163.413L328.064 163.14L328.089 162.581L334.067 162.852C334.249 162.861 334.402 162.721 334.41 162.54C334.434 162.014 334.027 161.569 333.502 161.545L328.371 161.311C326.988 161.249 325.816 162.319 325.753 163.702L324.229 197.161L331.864 197.508C332.389 197.533 332.835 197.126 332.859 196.6C332.867 196.42 332.727 196.266 332.547 196.258L326.568 195.987Z" fill="#03051E"/>
<path d="M330.487 215.061C333.45 213.997 332.711 210.349 332.711 210.349C336.247 207.847 333.124 205.29 333.124 205.29C335.97 203.391 332.944 200.588 332.944 200.588L324.009 201.994C324.009 201.994 322.981 204.379 325.68 205.665C325.68 205.665 321.645 207.253 324.621 209.946C324.621 209.946 320.948 211.883 323.561 213.801C323.561 213.801 320.038 215.258 322.159 217.967L328.869 219.263L329.275 218.961C330.433 217.842 330.487 215.061 330.487 215.061Z" fill="#FFCFB6"/>
<path d="M312.064 219.05C312.064 219.05 314.837 210.847 316.251 208.711C316.976 207.614 326.636 202.827 326.636 202.827C326.636 202.827 328.302 204.105 327.513 206.385C326.724 208.664 321.652 212.521 321.652 212.521C321.652 212.521 324.037 220.138 319.229 224.492L312.064 219.05Z" fill="#FFCFB6"/>
<path d="M213.197 189.899C213.197 189.899 190.927 195.42 190.052 213.66C189.178 231.899 200.755 259.068 205.547 289.259C205.547 289.259 248.482 304.241 265.658 289.981C265.658 289.981 266.931 265.133 270.907 247.393C274.882 229.652 265.346 226.021 258.834 212.224C252.322 198.426 249.763 195.983 241.691 192.49L213.197 189.899Z" fill="#43D8C9"/>
<path d="M213.197 275.136C216.406 264.262 234.851 238.296 234.851 238.296L198.676 260.876C201.405 269.873 203.982 279.399 205.547 289.26C205.547 289.26 210.087 290.843 216.801 292.49C213.95 286.654 211.758 280.017 213.197 275.136Z" fill="#2DAD9D"/>
<path d="M283.226 206.718C283.538 207.831 283.079 209.016 282.099 209.627L262.681 220.641C262.131 220.952 261.459 220.92 260.924 220.582C260.463 220.291 259.888 220.045 259.45 220.245C257.953 220.93 256.775 221.316 256.775 221.316L255.908 219.457L283.226 206.718Z" fill="#DAE1E7"/>
<path d="M262.438 220.736L265.113 215.164L255.908 219.457L256.775 221.315C256.775 221.315 257.953 220.929 259.45 220.245C259.888 220.045 260.463 220.291 260.924 220.582C261.383 220.872 261.94 220.922 262.438 220.736Z" fill="#B0BAC1"/>
<path d="M272.265 195.757C271.152 195.445 269.967 195.904 269.356 196.884L258.342 216.302C258.031 216.852 258.063 217.524 258.401 218.059C258.692 218.52 258.938 219.095 258.738 219.533C258.053 221.03 257.667 222.208 257.667 222.208L259.526 223.075L272.265 195.757Z" fill="#DAE1E7"/>
<path d="M260.778 218.204C260.469 217.895 259.969 217.895 259.661 218.204C259.351 218.513 259.351 219.013 259.66 219.321C259.969 219.63 260.469 219.63 260.778 219.321C261.087 219.013 261.087 218.513 260.778 218.204Z" fill="#03051E"/>
<path d="M259.372 227.758L259.357 227.742C259.174 227.56 259.02 227.36 258.892 227.146C258.602 226.659 258.602 226.051 258.832 225.533L259.923 223.086L257.34 221.881L255.81 225.261C255.575 225.783 255.114 226.191 254.55 226.29C254.547 226.291 254.544 226.291 254.54 226.292C253.355 226.497 252.202 227.067 251.267 228.002C249.282 229.987 248.928 232.965 250.259 235.136C250.643 235.762 250.647 236.543 250.283 237.18C249.711 238.178 249.166 239.551 249.175 241.148C250.013 241.143 250.724 240.56 250.928 239.747C251.031 239.336 251.172 238.951 251.33 238.603C251.721 237.744 252.653 237.298 253.572 237.512C255.463 237.956 257.592 237.399 259.129 235.863C261.431 233.562 261.539 229.925 259.372 227.758ZM252.141 234.989C250.59 233.438 250.699 230.804 252.384 229.119C254.071 227.433 256.703 227.324 258.254 228.875C259.806 230.427 259.697 233.06 258.011 234.746C256.326 236.431 253.691 236.542 252.141 234.989Z" fill="#03051E"/>
<path d="M247.937 228.547C247.937 228.547 249.485 229.95 250.034 229.633C250.77 229.207 250.491 227.225 250.491 227.225C250.491 227.225 249.333 228.207 247.937 228.547Z" fill="#03051E"/>
<path d="M255.831 218.993L253.496 220.034C252.832 220.33 252.046 220.269 251.472 219.821C251.359 219.734 251.252 219.639 251.149 219.535L251.133 219.52C248.965 217.352 245.33 217.461 243.028 219.763C240.726 222.064 240.617 225.701 242.784 227.868C244.952 230.036 248.588 229.927 250.889 227.625C251.798 226.716 252.365 225.6 252.586 224.447C252.586 224.443 252.587 224.439 252.588 224.436C252.706 223.826 253.155 223.332 253.72 223.076L257.035 221.576L255.831 218.993ZM243.902 226.751C242.35 225.2 242.46 222.566 244.145 220.881C245.831 219.195 248.464 219.086 250.015 220.637C251.567 222.189 251.458 224.821 249.772 226.508C248.087 228.193 245.453 228.302 243.902 226.751Z" fill="#03051E"/>
<path d="M247.232 195.352C245.665 194.311 243.881 193.438 241.691 192.491L213.197 189.9C213.197 189.9 209.495 190.818 205.05 193.141C211.082 198.27 223.719 207.599 235.004 206.718C242.105 206.165 245.563 200.895 247.232 195.352Z" fill="#2DAD9D"/>
<path d="M165.205 231.515C165.205 231.515 185.349 279.539 196.92 262.24C196.92 262.24 199.312 247.789 192.33 239.293C185.349 230.795 165.205 231.515 165.205 231.515Z" fill="#0E1F28"/>
<path d="M194.972 201.904C194.972 201.904 204.646 209.972 203.588 227.224C202.531 244.477 175.904 281.772 171.626 283.284C167.349 284.796 157.23 270.287 165.503 250.952C173.777 231.617 184.882 206.869 194.972 201.904Z" fill="#FFCFB6"/>
<path d="M312.064 219.05C312.064 219.05 282.878 245.999 279.113 258.326C275.348 270.654 280.719 287.904 280.719 287.904C280.719 287.904 288.505 289.26 297.576 273.604C303.733 262.976 321.652 226.332 321.652 226.332L312.064 219.05Z" fill="#FFCFB6"/>
<path d="M260.525 516.491C260.525 516.491 267.382 522.044 274.487 526.878C281.507 531.654 297.944 536.925 296.634 539.86C296.634 539.86 251.665 541.515 245.397 538.11C242.695 536.642 243.048 516.491 243.048 516.491H260.525Z" fill="#FFCFB6"/>
<path d="M242.941 523.974L262.472 527.633C262.472 527.633 258.589 520.574 263.598 519.011C263.598 519.011 280.186 527.78 288.355 529.877C296.524 531.974 297.034 540.847 297.034 540.847C297.034 540.847 267.633 539.165 243.659 539.165C243.659 539.165 241.635 534.131 242.941 523.974Z" fill="#0E1F28"/>
<path d="M288.355 529.877C287.137 529.564 285.731 529.101 284.222 528.543C280.481 532.181 280.378 538.284 280.378 538.284C265.397 538.494 250.108 536.8 242.883 535.86C243.221 538.056 243.659 540.846 243.659 540.846H297.034C297.035 540.847 296.524 531.974 288.355 529.877Z" fill="white"/>
<path d="M208.587 516.491C208.587 516.491 208.922 520.469 209.776 522.224C211.626 526.025 217.063 528.514 217.063 540.261H186.205C186.205 540.261 183.634 528.972 190.92 516.49H208.587V516.491Z" fill="#FFCFB6"/>
<path d="M211.063 528.626C211.063 528.626 207.843 519.011 201.416 519.011C194.987 519.011 190.173 528.076 190.173 528.076L187.059 525.665C184.785 534.008 186.206 540.263 186.206 540.263H217.063C217.063 530.613 213.398 527.21 211.063 524.197V528.626Z" fill="#0E1F28"/>
<path d="M194.973 201.904C185.411 206.608 174.942 229.071 166.831 247.863C176.794 245.685 185.378 250.905 191.508 256.74C197.756 246.183 203.125 234.782 203.588 227.224C204.646 209.972 194.973 201.904 194.973 201.904Z" fill="#FFADA5"/>
<path d="M216.939 537.439H214.214C212.149 533.39 208.476 528.543 202.705 528.543C197.171 528.543 193.502 533.266 191.338 537.439H185.847C185.973 539.219 186.205 540.262 186.205 540.262H190.04H215.348H217.062C217.063 539.251 217.014 538.32 216.939 537.439Z" fill="white"/>
<path d="M200.879 195.66C200.879 195.66 189.916 200.735 180.989 210.623C172.063 220.511 165.205 231.514 165.205 231.514C165.205 231.514 188.292 235.219 196.92 262.239C196.92 262.239 204.567 242.511 206.958 227.224C209.349 211.938 200.879 195.66 200.879 195.66Z" fill="#43D8C9"/>
<path d="M226.745 231.389C226.745 231.389 237.036 224.888 239.367 223.385C241.698 221.882 258.38 227.912 258.38 227.912C258.38 227.912 260.163 231.418 256.665 232.059C256.665 232.059 258.017 235.656 254.201 236.164C254.201 236.164 254.694 240.354 250.844 240.09C250.844 240.09 250.214 242.255 246.919 242.823C243.624 243.39 232.328 242.739 232.328 242.739L226.745 231.389Z" fill="#FFCFB6"/>
<path d="M226.745 231.389C226.745 231.389 182.349 248.67 175.062 255.805C167.776 262.939 171.626 283.285 171.626 283.285C171.626 283.285 180.205 281.32 192.634 275.558C205.062 269.796 232.328 242.739 232.328 242.739L226.745 231.389Z" fill="#FFCFB6"/>
<path d="M182.977 250.445C182.977 250.445 171.3 252.461 170.61 270.128" stroke="#FFADA5" stroke-miterlimit="10"/>
<path d="M223.615 155.245C223.615 155.245 219.797 183.82 213.197 189.899C213.197 189.899 236.563 211.451 241.691 192.49C241.691 192.49 240.07 180.747 241.691 169.889L223.615 155.245Z" fill="#FFCFB6"/>
<path d="M219.705 175.105C225.563 177.779 232.643 179.715 240.974 179.917C240.996 176.743 241.186 173.273 241.691 169.888L223.615 155.245C223.615 155.246 222.236 165.554 219.705 175.105Z" fill="#FFADA5"/>
<path d="M228.28 121.344C239.493 111.553 259.396 114.097 264.804 128.821C270.213 143.544 255.559 178.52 247.755 177.793C239.949 177.067 222.056 165.935 221.243 149.049C220.429 132.162 222.898 126.044 228.28 121.344Z" fill="#FFCFB6"/>
<path d="M264.805 128.82C260.246 116.41 245.39 112.653 234.118 117.643L235.714 121.068L236.634 126.056C236.634 126.056 242.596 121.203 247.047 129.476C250.641 136.157 255.605 149.163 264.155 149.743C266.104 141.885 266.732 134.067 264.805 128.82Z" fill="#FFADA5"/>
<path d="M236.634 126.057C236.634 126.057 243.168 116.703 251.741 130.5C256.397 137.991 257.812 149.131 270.205 145.195C282.6 141.257 287.017 135.969 280.832 131.714C274.649 127.46 281.035 106.707 264.593 105.479C248.151 104.249 229.56 115.505 229.56 115.505C229.56 115.505 217.693 112.947 213.197 125.699C208.703 138.452 211.635 137.802 198.071 146.347C184.508 154.891 189.186 168.7 188.718 176.727C188.25 184.753 169.53 194.704 180.989 210.623C192.447 226.541 217.734 224.311 222.979 193.996C228.225 163.683 223.786 151.946 223.786 151.946L226.842 145.281C226.842 145.281 231.446 143.669 232.096 136.638C232.758 129.477 232.293 121.848 236.634 126.057Z" fill="#F5B553"/>
<path d="M227.352 129.477C223.669 142.193 220.382 149.435 207.293 155.811C197.097 160.778 192.302 155.81 194.49 149.102C185.414 157.637 189.138 169.514 188.718 176.727C188.25 184.753 167.402 196.479 180.99 210.623C213.198 244.153 217.734 224.311 222.98 193.997C228.225 163.683 223.787 151.946 223.787 151.946L226.842 145.281C226.842 145.281 231.446 143.669 232.096 136.638C232.758 129.477 232.293 121.848 236.634 126.057C236.634 126.057 231.035 116.76 227.352 129.477Z" fill="#DD9A43"/>
<path d="M226.842 145.28C226.842 145.28 221.621 132.158 219.734 139.949C216.681 152.554 225.945 155.81 225.945 155.81L226.842 145.28Z" fill="#FFCFB6"/>
<path d="M225.434 147.149C225.434 147.149 221.841 139.726 221.358 142.6C220.874 145.473 222.85 150.486 225.063 151.444L225.434 147.149Z" fill="#FFADA5"/>
<path d="M237.7 140C237.7 140 240.067 136.492 245.8 135.097C248.959 134.327 249.763 138.835 249.763 138.835C249.763 138.835 249.2 139.405 248.405 139.571C247.609 139.737 247.132 137.324 244.959 137.479C242.786 137.633 237.7 140 237.7 140Z" fill="#F5B553"/>
<path d="M246.88 143.168C246.334 143.072 245.769 143.692 245.616 144.555C245.464 145.416 245.783 146.193 246.329 146.289C246.875 146.386 247.441 145.766 247.593 144.903C247.745 144.041 247.426 143.265 246.88 143.168Z" fill="#42210B"/>
<path d="M260.876 145.362C260.33 145.265 259.765 145.886 259.612 146.748C259.461 147.61 259.779 148.386 260.325 148.483C260.871 148.579 261.438 147.959 261.589 147.096C261.741 146.235 261.422 145.458 260.876 145.362Z" fill="#42210B"/>
<path d="M258.683 157.802C261.027 161.924 255.589 159.859 254.713 157.252C253.836 154.646 256.541 146.923 256.541 146.923C256.541 146.923 256.337 153.681 258.683 157.802Z" fill="#FFADA5"/>
<path d="M254.187 162.443C254.187 162.443 246.97 160.344 243.168 158.328C243.167 158.329 248.047 169.979 254.187 162.443Z" fill="white"/>
<path d="M251.741 130.5C256.396 137.99 257.811 149.131 270.205 145.194C282.599 141.257 287.016 135.969 280.832 131.714C275.841 128.28 279.032 114.104 271.806 108.115C273.074 111.992 274.218 117.845 272.361 123.605C269.189 133.447 275.755 132.286 275.755 132.286C266.105 140.62 264.804 128.82 254.186 121.259C243.568 113.696 236.634 126.057 236.634 126.057C236.634 126.057 243.168 116.703 251.741 130.5Z" fill="#DD9A43"/>
<path d="M192.698 332.803C192.698 332.803 214.527 336.519 248.152 336.519" stroke="#75BFD8" stroke-miterlimit="10"/>
<path d="M203.823 292.49C203.823 292.49 248.51 310.54 266.428 293.81" stroke="#75BFD8" stroke-miterlimit="10"/>
<path d="M212.194 291.286C212.194 291.286 204.732 309.52 201.468 337.873" stroke="#75BFD8" stroke-miterlimit="10"/>
<path d="M206.832 307.082C206.832 307.082 220.789 306.758 230.926 299.849" stroke="#75BFD8" stroke-miterlimit="10"/>
<path d="M262.263 296.843L267.708 300.654" stroke="#75BFD8" stroke-miterlimit="10"/>
<path d="M335.888 256.328C335.888 256.328 311.892 266.512 299.788 283.226C287.686 299.94 279.114 392.512 279.114 392.512C279.114 392.512 293.669 393.939 319.392 408.225C345.114 422.512 363.43 427.151 391.558 420.974C419.686 414.798 417.55 369.757 437.276 363.824C437.276 363.824 422.257 335.085 405.114 311.941C387.971 288.798 358.223 270.79 358.223 270.79L335.888 256.328Z" fill="#071419"/>
<path d="M372.436 213.637C372.436 213.637 373.882 219.137 378.061 222.494C382.239 225.852 373.561 229.066 373.561 229.066L372.436 213.637Z" fill="#FFADA5"/>
<path d="M400.039 370.34L350.3 378.875C350.3 378.875 360.274 405.51 382.645 408.226C405.016 410.941 464.158 406.227 464.158 406.227L487.73 383.513C482.834 375.354 400.039 370.34 400.039 370.34Z" fill="#FFADA5"/>
<path d="M487.73 383.513L457.9 396.993C457.9 396.993 448.139 416.719 447.979 437.591C447.819 458.463 444.846 502.854 444.846 502.854L462.176 504.984C462.177 504.983 489.696 393.313 487.73 383.513Z" fill="#FFADA5"/>
<path d="M342.479 229.935L334.123 263.395L358.55 277.679C358.55 277.679 356.623 248.653 360.479 242.155L342.479 229.935Z" fill="#FFCFB6"/>
<path d="M342.479 229.935L338.114 247.412C345.327 250.583 353.122 251.128 358.5 251.005C358.855 247.126 359.466 243.861 360.479 242.155L342.479 229.935Z" fill="#FFADA5"/>
<path d="M334.91 260.241C334.91 260.241 310.979 277.871 322.551 305.084C334.123 332.296 351.824 383.229 351.824 383.229L400.039 370.34C400.039 370.34 395.799 350.737 393.23 332.682C392.374 326.664 400.944 311.468 393.873 305.244C372.148 286.125 358.333 273.559 358.333 273.559L334.91 260.241Z" fill="#FFADA5"/>
<path d="M350.3 378.875C350.3 378.875 360.275 405.51 382.646 408.226C405.016 410.941 464.158 406.227 464.158 406.227C464.158 406.227 461.587 428.084 468.444 447.798C475.301 467.512 488.158 510.14 488.158 510.14L504.444 506.512C504.444 506.512 492.873 392.084 487.73 383.513C482.834 375.354 400.039 370.34 400.039 370.34L350.3 378.875Z" fill="#FFCFB6"/>
<path d="M493.945 416.268L463.87 422.973C464.28 430.358 465.48 439.277 468.444 447.798C469.817 451.747 471.431 456.614 473.134 461.874C483.697 457.749 492.386 453.802 498.337 450.938C496.939 439.099 495.427 426.956 493.945 416.268Z" fill="#FFADA5"/>
<path d="M400.039 370.34C400.039 370.34 478.404 375.798 487.831 380.084C497.257 384.369 507.113 446.512 507.113 446.512C507.113 446.512 474.346 453.798 441.672 453.798V410.898C441.672 410.898 385.56 411.482 374.979 409.069C364.399 406.656 351.824 383.229 351.824 383.229L400.039 370.34Z" fill="#95389E"/>
<path d="M374.979 409.068C385.56 411.481 441.671 410.897 441.671 410.897V453.797C454.117 453.797 466.571 452.739 477.228 451.43C473.156 438.734 465.571 413.924 466.854 409.068C468.595 402.481 475.73 399.395 475.73 399.395C475.73 399.395 393.113 408.797 377.685 403.655C362.256 398.511 351.824 383.228 351.824 383.228C351.824 383.228 364.399 406.655 374.979 409.068Z" fill="#512B58"/>
<path d="M331.023 202.219C338.172 189.162 357.732 184.688 367.885 196.643C378.039 208.599 376.345 246.483 368.768 248.491C361.191 250.5 340.557 246.222 333.97 230.652C327.384 215.081 327.591 208.488 331.023 202.219Z" fill="#FFCFB6"/>
<path d="M363.274 215.565C363.274 215.565 366.006 210.503 368.738 210.261C371.47 210.021 372.435 211.065 372.435 211.065L371.792 213.636C371.792 213.636 369.944 211.789 368.336 212.351C366.729 212.915 363.274 215.565 363.274 215.565Z" fill="#F7931E"/>
<path d="M370.988 215.565C370.589 215.565 370.265 216.338 370.265 217.293C370.265 218.248 370.589 219.021 370.988 219.021C371.387 219.021 371.712 218.248 371.712 217.293C371.712 216.338 371.387 215.565 370.988 215.565Z" fill="#43D8C9"/>
<path d="M374.078 237.295C374.299 235.969 374.48 234.568 374.622 233.108L366.328 232.039C366.328 232.039 368.097 236.813 374.078 237.295Z" fill="white"/>
<path d="M504.444 506.512C504.444 506.512 510.472 513.937 516.328 520.227C522.113 526.441 536.972 535.227 535.043 537.798C533.115 540.369 490.827 529.438 485.471 524.727C483.162 522.696 487.06 506.512 487.06 506.512H504.444Z" fill="#FFCFB6"/>
<path d="M486.212 510.397L504.444 518.297C504.444 518.297 502.224 510.553 507.455 510.139C507.455 510.139 521.685 522.368 529.185 526.226C536.685 530.084 535.214 538.847 535.214 538.847C535.214 538.847 504.541 534.797 483.541 525.368C483.542 525.369 482.686 520.012 486.212 510.397Z" fill="#0E1F28"/>
<path d="M529.186 526.227C528.068 525.652 526.798 524.888 525.452 524.01C520.997 526.728 519.542 532.656 519.542 532.656C504.889 529.539 490.355 524.494 483.52 521.976C483.362 524.192 483.542 525.37 483.542 525.37C504.542 534.799 535.216 538.849 535.216 538.849C535.216 538.849 536.686 530.084 529.186 526.227Z" fill="white"/>
<path d="M462.101 504.983C462.101 504.983 467.174 513.09 472.215 520.05C477.195 526.926 490.865 537.467 488.636 539.782C486.407 542.097 445.778 526.066 441.039 520.735C438.995 518.436 444.847 502.852 444.847 502.852L462.101 504.983Z" fill="#FFADA5"/>
<path d="M443.529 506.605L460.657 516.68C460.657 516.68 459.402 508.722 464.644 508.952C464.644 508.952 477.268 522.834 484.239 527.58C491.21 532.327 488.676 540.846 488.676 540.846C488.676 540.846 458.733 533.068 439.046 521.137C439.046 521.138 438.852 515.716 443.529 506.605Z" fill="#0E1F28"/>
<path d="M484.239 527.581C483.2 526.873 482.034 525.96 480.804 524.923C476.05 527.074 473.881 532.779 473.881 532.779C459.719 527.889 445.913 521.103 439.438 517.767C439.01 519.946 439.045 521.137 439.045 521.137C458.732 533.068 488.675 540.846 488.675 540.846C488.675 540.846 491.211 532.328 484.239 527.581Z" fill="white"/>
<path d="M461.331 261.696L425.254 297.773C424.396 298.632 424.396 300.023 425.254 300.882C426.112 301.74 427.504 301.74 428.362 300.882L464.44 264.803C465.298 263.945 465.298 262.553 464.44 261.695C463.582 260.837 462.189 260.837 461.331 261.696Z" fill="#0B0B0D"/>
<path d="M457.557 272.106C457.557 272.106 457.228 271.144 455.066 271.884C452.904 272.625 439.217 288.018 439.217 288.018L432.108 292.091C432.108 292.091 438.65 283.898 439.976 280.362C441.302 276.827 439.485 274.322 439.485 274.322L433.544 280.362C433.544 280.362 425.469 287.442 424.403 289.82C423.338 292.197 421.482 305.206 421.482 305.206L431.693 312.02C431.693 312.02 451.354 300.526 451.976 298.032C452.599 295.538 455.118 288.505 455.118 288.505C455.118 288.505 456.451 284.56 456.919 282.79C457.388 281.02 456.363 275.283 456.363 275.283L457.557 272.106Z" fill="#FFCFB6"/>
<path d="M335.699 277.52C335.699 277.52 349.54 283.689 360.479 305.207C371.419 326.725 379.949 342.148 379.949 342.148L421.481 305.207L435.769 309.583C435.769 309.583 398.846 370.546 375.816 374.498C375.816 374.498 352.245 358.738 329.233 317.299C329.233 317.298 328.855 293.348 335.699 277.52Z" fill="#FFCFB6"/>
<path d="M375.816 374.497C398.846 370.545 435.769 309.583 435.769 309.583C435.769 309.583 385.49 365.495 375.816 365.94C366.142 366.386 329.233 317.297 329.233 317.297C352.246 358.736 375.816 374.497 375.816 374.497Z" fill="#FFADA5"/>
<path d="M344.899 232.039C345.279 237.143 349.292 276.444 370.988 294.139C370.988 294.139 355.399 291.584 349.613 283.869C343.828 276.155 341.256 226.454 341.256 226.454L344.899 232.039Z" fill="#F15A24"/>
<path d="M397.314 502.563C387.671 484.951 388.314 410.247 388.314 410.247H380.583H379.314H371.583C371.583 410.247 372.226 484.951 362.583 502.563C352.94 520.174 318.226 532.634 318.226 540.869H379.314H380.583H441.671C441.672 532.635 406.957 520.175 397.314 502.563Z" fill="#DAE1E7"/>
<path d="M397.314 502.563C387.671 484.952 388.314 410.247 388.314 410.247H384.141C383.766 433.147 383.498 493.678 390.756 507.678C395.84 517.484 404.209 530.981 410.525 540.87H441.671C441.672 532.635 406.957 520.175 397.314 502.563Z" fill="#929AAB"/>
<path d="M307.144 279.938C278.213 303.087 295.998 433.749 340.461 433.749H437.595C464.957 433.749 471.812 380.252 463.603 369.823C455.395 359.394 388.724 374.516 375.043 358.441C360.633 341.509 337.763 255.438 307.144 279.938Z" fill="#FFBC36"/>
<path d="M458.219 419.667C448.537 425.515 388.828 429.248 364.4 414.671C339.971 400.094 316.828 283.311 306.086 283.311L303.507 283.723C279.879 314.644 298.009 433.748 340.461 433.748H437.595C446.65 433.748 453.458 427.886 458.219 419.667Z" fill="#F0A500"/>
<path d="M375.816 423.378C397.539 420.843 388.804 384.147 393.947 363.564C399.089 342.981 408.71 316.565 408.71 316.565C407.467 315.034 406.262 313.492 405.113 311.94C387.97 288.798 358.222 270.79 358.222 270.79L335.887 256.329C335.887 256.329 311.891 266.513 299.788 283.228C287.685 299.941 279.113 392.513 279.113 392.513C279.113 392.513 293.283 394.656 319.391 408.227C351.824 425.084 375.816 423.378 375.816 423.378Z" fill="#0E1F28"/>
<path d="M406.808 314.17C396.976 326.097 380.672 347.163 375.817 361.227C368.713 381.798 367.855 408.226 367.855 408.226C345.933 391.795 351.825 329.08 351.825 329.08C340.872 351.791 338.048 405.369 338.048 405.369C331.319 401.94 305.777 335.941 309.101 305.084C311.579 282.072 328.238 264.308 336.552 256.758L335.888 256.328C335.888 256.328 311.892 266.512 299.788 283.227C287.686 299.941 279.114 392.512 279.114 392.512C279.114 392.512 293.284 394.655 319.392 408.226C351.825 425.084 375.817 423.377 375.817 423.377C397.54 420.843 388.805 384.147 393.948 363.564C399.09 342.981 408.71 316.567 408.71 316.567C408.064 315.77 407.431 314.971 406.808 314.17Z" fill="#071419"/>
<path d="M374.979 195.137C376.586 201.451 353.051 213.166 353.051 213.166C353.051 213.166 350.211 227.681 344.412 234.087C344.412 234.087 348.857 253.419 341.492 259.162C334.126 264.906 325.769 263.893 316.448 273.56C307.126 283.227 303.181 298.656 303.181 298.656C303.181 298.656 287.198 283.57 288.483 268.13C289.769 252.691 304.496 242.502 311.176 231.101C317.664 220.03 312.649 195.813 322.291 186.966C331.936 178.119 373.374 188.822 374.979 195.137Z" fill="#F7931E"/>
<path d="M344.412 234.087C350.212 227.681 353.052 213.166 353.052 213.166C353.052 213.166 360.678 209.368 366.952 204.933C354.255 206.747 338.114 200.829 338.114 200.829C338.114 200.829 321.485 219.515 314.358 220.315C313.766 224.462 312.861 228.227 311.177 231.101C304.496 242.502 289.769 252.691 288.483 268.13C287.198 283.569 303.182 298.655 303.182 298.655C303.182 298.655 307.127 283.227 316.448 273.56C325.769 263.893 334.127 264.905 341.492 259.162C348.857 253.419 344.412 234.087 344.412 234.087Z" fill="#F15A24"/>
<path d="M349.613 225.849C349.613 225.849 343.507 211.713 339.007 218.381C334.507 225.048 347.3 236.298 347.3 236.298L349.613 225.849Z" fill="#FFCFB6"/>
<path d="M347.301 227.084C347.301 227.084 342.864 216.905 341.257 220.548C339.65 224.19 345.757 229.065 345.757 229.065L347.301 227.084Z" fill="#FFADA5"/>
<path d="M568.65 88.029V128.371H590.507V88.029C590.507 84.56 587.695 81.749 584.227 81.749H574.93C571.462 81.75 568.65 84.561 568.65 88.029Z" fill="#FFD933"/>
<path d="M584.228 81.749H577.874C581.343 81.749 584.154 84.561 584.154 88.029V128.371H590.508V88.029C590.508 84.561 587.696 81.749 584.228 81.749Z" fill="#E8C223"/>
<path d="M584.153 69.452H575.005V81.749H584.153V69.452Z" fill="#0E1F28"/>
<path d="M588.152 92.166H571.008V119.595H588.152V92.166Z" fill="white"/>
<path d="M592.253 102.237V128.371H624.911V102.237C624.911 97.055 620.71 92.854 615.528 92.854H601.636C596.454 92.854 592.253 97.055 592.253 102.237Z" fill="#95389E"/>
<path d="M615.528 92.854H607.428C612.611 92.854 616.812 97.055 616.812 102.237V128.371H624.911V102.237C624.911 97.056 620.711 92.854 615.528 92.854Z" fill="#792884"/>
<path d="M615.109 80.556H602.058V92.854H615.109V80.556Z" fill="#0E1F28"/>
<path d="M621.388 101.595H595.774V122.081H621.388V101.595Z" fill="white"/>
<path d="M644.797 120.777H630.868V128.371H644.797V120.777Z" fill="#0E1F28"/>
<path d="M627.321 80.557L630.868 120.777H644.797L648.344 80.557H627.321Z" fill="#43D8C9"/>
<path d="M643.393 80.557L641.517 120.777H644.797L648.344 80.557H643.393Z" fill="#2DAD9D"/>
<path d="M648.342 77.413H627.321V80.557H648.342V77.413Z" fill="#2DAD9D"/>
<path d="M641.25 88.308H634.415V113.025H641.25V88.308Z" fill="white"/>
<path d="M572.935 131.937H564.365V164.459H572.935V131.937Z" fill="#DAE1E7"/>
<path d="M652.629 131.937H644.058V164.459H652.629V131.937Z" fill="#DAE1E7"/>
<path d="M572.935 131.936H564.365V151.281H572.935V131.936Z" fill="#929AAB"/>
<path d="M652.629 131.936H644.058V151.281H652.629V131.936Z" fill="#929AAB"/>
<path d="M668.582 128.371H548.412V146.43H668.582V128.371Z" fill="#FED190"/>
<path d="M548.412 128.371L668.582 146.43V128.371H548.412Z" fill="#EFBD7D"/>
<path d="M572.935 226.131H564.365V258.654H572.935V226.131Z" fill="#DAE1E7"/>
<path d="M652.629 226.131H644.058V258.654H652.629V226.131Z" fill="#DAE1E7"/>
<path d="M572.935 226.131H564.365V245.476H572.935V226.131Z" fill="#929AAB"/>
<path d="M652.629 226.131H644.058V245.476H652.629V226.131Z" fill="#929AAB"/>
<path d="M668.582 222.566H548.412V240.624H668.582V222.566Z" fill="#FED190"/>
<path d="M548.412 222.566L668.582 240.625V222.566H548.412Z" fill="#EFBD7D"/>
<path d="M561.707 207.459V218.566C561.707 220.775 563.497 222.566 565.707 222.566H586.635C588.844 222.566 590.635 220.775 590.635 218.566V207.459H561.707Z" fill="#FFD933"/>
<path d="M590.635 207.459V203.905C590.635 201.696 588.844 199.905 586.635 199.905H565.707C563.497 199.905 561.707 201.696 561.707 203.905V207.459H590.635Z" fill="#E8C223"/>
<path d="M588.568 209.388H563.773V217.263H588.568V209.388Z" fill="white"/>
<path d="M582.496 211.715V219.694C582.496 221.279 583.782 222.567 585.369 222.567H600.401C601.988 222.567 603.274 221.279 603.274 219.694V211.715H582.496Z" fill="#43D8C9"/>
<path d="M603.274 211.715V209.162C603.274 207.576 601.988 206.289 600.401 206.289H585.369C583.782 206.289 582.496 207.576 582.496 209.162V211.715H603.274Z" fill="#0E1F28"/>
<path d="M601.79 213.101H583.98V218.757H601.79V213.101Z" fill="white"/>
<path d="M605.421 207.459V218.566C605.421 220.775 607.212 222.566 609.421 222.566H630.35C632.559 222.566 634.35 220.775 634.35 218.566V207.459H605.421Z" fill="#95389E"/>
<path d="M634.35 207.459V203.905C634.35 201.696 632.559 199.905 630.35 199.905H609.421C607.212 199.905 605.421 201.696 605.421 203.905V207.459H634.35Z" fill="#0E1F28"/>
<path d="M632.283 209.388H607.487V217.263H632.283V209.388Z" fill="white"/>
<path d="M640.998 218.014H632.65V222.566H640.998V218.014Z" fill="#0E1F28"/>
<path d="M630.524 193.908L632.65 218.014H640.998L643.124 193.908H630.524Z" fill="#95389E"/>
<path d="M640.157 193.908L639.032 218.014H640.998L643.124 193.908H640.157Z" fill="#792884"/>
<path d="M643.124 192.024H630.524V193.908H643.124V192.024Z" fill="#792884"/>
<path d="M638.873 198.555H634.776V213.368H638.873V198.555Z" fill="white"/>
<path d="M655.465 218.014H647.117V222.566H655.465V218.014Z" fill="#0E1F28"/>
<path d="M644.991 193.908L647.117 218.014H655.465L657.591 193.908H644.991Z" fill="#FFD933"/>
<path d="M654.623 193.908L653.499 218.014H655.465L657.591 193.908H654.623Z" fill="#E8C223"/>
<path d="M657.591 192.024H644.991V193.908H657.591V192.024Z" fill="#E8C223"/>
<path d="M653.339 198.555H649.242V213.368H653.339V198.555Z" fill="white"/>
<path d="M572.935 320.326H564.365V352.848H572.935V320.326Z" fill="#DAE1E7"/>
<path d="M652.629 320.326H644.058V352.848H652.629V320.326Z" fill="#DAE1E7"/>
<path d="M572.935 320.325H564.365V339.67H572.935V320.325Z" fill="#929AAB"/>
<path d="M652.629 320.325H644.058V339.67H652.629V320.325Z" fill="#929AAB"/>
<path d="M668.582 316.76H548.412V334.819H668.582V316.76Z" fill="#FED190"/>
<path d="M548.412 316.761L668.582 334.818V316.761H548.412Z" fill="#EFBD7D"/>
<path d="M636.695 262.662L625.233 313.911C625.111 314.455 625.454 314.995 625.998 315.117H626C626.544 315.239 627.084 314.896 627.206 314.352L638.668 263.102C638.79 262.558 638.447 262.018 637.903 261.896H637.901C637.357 261.775 636.817 262.118 636.695 262.662Z" fill="#95389E"/>
<path d="M633.713 286.458L633.835 285.911L639.675 287.217C639.852 287.257 640.028 287.145 640.067 286.969V286.968C640.107 286.791 639.996 286.615 639.819 286.576L633.979 285.27L634.101 284.723L639.942 286.028C640.119 286.068 640.294 285.957 640.333 285.78L640.334 285.779C640.373 285.603 640.262 285.427 640.085 285.388L634.245 284.081L634.368 283.534L640.208 284.84C640.385 284.88 640.56 284.769 640.6 284.592V284.591C640.639 284.414 640.529 284.238 640.352 284.199L634.511 282.893L634.634 282.346L640.474 283.651C640.651 283.691 640.826 283.58 640.866 283.403V283.402C640.906 283.226 640.795 283.05 640.618 283.011L634.777 281.704L634.9 281.157L640.74 282.464C640.917 282.503 641.093 282.392 641.132 282.215V282.214C641.172 282.037 641.061 281.861 640.884 281.822L635.044 280.516L635.166 279.969L641.006 281.275C641.183 281.314 641.359 281.203 641.398 281.026V281.025C641.438 280.849 641.327 280.674 641.15 280.634L635.31 279.328L635.432 278.78L641.272 280.087C641.449 280.126 641.625 280.015 641.664 279.838L641.665 279.837C641.704 279.66 641.593 279.485 641.416 279.445L635.576 278.14L635.698 277.592L641.539 278.898C641.716 278.937 641.891 278.826 641.931 278.649V278.648C641.97 278.472 641.859 278.297 641.682 278.257L635.842 276.951L635.965 276.403L641.805 277.71C641.982 277.749 642.156 277.638 642.197 277.461V277.46C642.236 277.283 642.126 277.108 641.949 277.068L636.108 275.763L636.231 275.215L642.07 276.521C642.248 276.561 642.423 276.449 642.463 276.273V276.271C642.503 276.095 642.392 275.92 642.215 275.88L636.375 274.574L636.497 274.027L642.337 275.333C642.514 275.373 642.69 275.262 642.729 275.085V275.083C642.769 274.906 642.657 274.731 642.481 274.692L636.641 273.386L636.763 272.839L642.603 274.145C642.78 274.185 642.956 274.073 642.995 273.896V273.895C643.035 273.719 642.924 273.543 642.747 273.504L636.907 272.197L637.029 271.65L642.869 272.956C643.046 272.996 643.222 272.885 643.261 272.708L643.262 272.707C643.301 272.53 643.19 272.354 643.013 272.315L637.173 271.009L637.295 270.462L643.136 271.768C643.313 271.808 643.488 271.696 643.528 271.52V271.519C643.567 271.342 643.456 271.166 643.279 271.127L637.439 269.82L637.562 269.273L643.402 270.579C643.579 270.619 643.754 270.508 643.794 270.331V270.33C643.833 270.153 643.723 269.978 643.546 269.938L637.705 268.632L637.828 268.085L643.668 269.391C643.845 269.431 644.02 269.319 644.06 269.143V269.142C644.1 268.965 643.989 268.789 643.812 268.75L637.972 267.443L638.094 266.896L643.934 268.203C644.111 268.242 644.287 268.131 644.325 267.954V267.953C644.366 267.776 644.255 267.602 644.078 267.562L638.238 266.256L638.36 265.708L644.2 267.015C644.377 267.054 644.553 266.942 644.592 266.766L644.593 266.765C644.632 266.588 644.521 266.413 644.344 266.373L638.504 265.067L638.626 264.52L644.466 265.826C644.643 265.865 644.819 265.754 644.858 265.577L644.859 265.576C644.898 265.399 644.787 265.225 644.61 265.185L638.77 263.879L638.893 263.331L644.733 264.638C644.91 264.677 645.085 264.565 645.125 264.389V264.388C645.164 264.211 645.053 264.036 644.876 263.996L639.035 262.69L639.158 262.143L644.999 263.449C645.176 263.488 645.351 263.377 645.391 263.201V263.199C645.43 263.022 645.32 262.848 645.143 262.808L639.303 261.502L639.425 260.955L645.265 262.261C645.442 262.3 645.618 262.189 645.657 262.013V262.011C645.697 261.834 645.586 261.659 645.409 261.62L639.569 260.313L639.691 259.767L645.531 261.072C645.708 261.112 645.884 261.001 645.923 260.824V260.822C645.963 260.646 645.852 260.471 645.675 260.432L639.835 259.125L639.957 258.578L645.797 259.884C645.974 259.924 646.15 259.812 646.189 259.636L646.19 259.635C646.229 259.458 646.119 259.282 645.941 259.243L640.101 257.937L640.223 257.39L646.064 258.695C646.24 258.735 646.416 258.624 646.455 258.447L646.456 258.446C646.494 258.27 646.384 258.094 646.207 258.055L640.367 256.748L640.49 256.201L646.33 257.507C646.507 257.547 646.682 257.436 646.722 257.259V257.258C646.761 257.081 646.65 256.905 646.474 256.866L640.633 255.56L640.756 255.013L646.596 256.318C646.773 256.358 646.948 256.247 646.988 256.07V256.069C647.028 255.893 646.917 255.717 646.74 255.678L640.9 254.371L641.022 253.824L646.862 255.131C647.038 255.17 647.214 255.059 647.254 254.882C647.37 254.368 647.046 253.859 646.532 253.744L641.52 252.623C640.168 252.321 638.829 253.172 638.526 254.522L631.215 287.209L638.673 288.878C639.187 288.992 639.696 288.669 639.811 288.155C639.851 287.979 639.74 287.804 639.563 287.765L633.713 286.458Z" fill="#95389E"/>
<path d="M629.223 261.409L612.577 264.345C612.374 264.381 612.18 264.244 612.143 264.04C612.107 263.837 612.243 263.641 612.447 263.606L629.093 260.671C629.297 260.635 629.491 260.771 629.528 260.974C629.563 261.179 629.426 261.374 629.223 261.409Z" fill="#0E1F28"/>
<path d="M629.55 263.266L612.904 266.202C612.701 266.237 612.507 266.101 612.47 265.897C612.433 265.693 612.571 265.498 612.774 265.462L629.42 262.528C629.624 262.492 629.818 262.627 629.855 262.831C629.89 263.036 629.754 263.229 629.55 263.266Z" fill="#0E1F28"/>
<path d="M629.877 265.121L613.231 268.056C613.028 268.092 612.834 267.956 612.797 267.752C612.76 267.548 612.899 267.353 613.101 267.317L629.747 264.382C629.951 264.347 630.145 264.482 630.182 264.686C630.217 264.891 630.08 265.085 629.877 265.121Z" fill="#0E1F28"/>
<path d="M630.204 266.977L613.558 269.913C613.355 269.949 613.161 269.812 613.124 269.608C613.088 269.405 613.225 269.209 613.428 269.174L630.074 266.239C630.278 266.203 630.473 266.339 630.509 266.543C630.544 266.747 630.408 266.941 630.204 266.977Z" fill="#0E1F28"/>
<path d="M630.531 268.832L613.885 271.768C613.682 271.803 613.488 271.667 613.451 271.463C613.414 271.259 613.552 271.064 613.755 271.028L630.401 268.094C630.605 268.058 630.799 268.193 630.836 268.397C630.871 268.602 630.735 268.796 630.531 268.832Z" fill="#0E1F28"/>
<path d="M630.858 270.688L614.212 273.623C614.009 273.659 613.815 273.523 613.778 273.319C613.742 273.115 613.879 272.92 614.083 272.884L630.729 269.949C630.932 269.914 631.127 270.049 631.163 270.253C631.198 270.458 631.063 270.652 630.858 270.688Z" fill="#0E1F28"/>
<path d="M631.186 272.544L614.54 275.48C614.337 275.516 614.143 275.379 614.106 275.175C614.07 274.972 614.207 274.776 614.411 274.741L631.057 271.806C631.261 271.77 631.455 271.906 631.492 272.11C631.525 272.314 631.39 272.509 631.186 272.544Z" fill="#0E1F28"/>
<path d="M631.513 274.399L614.867 277.335C614.664 277.37 614.47 277.234 614.433 277.03C614.396 276.826 614.534 276.631 614.738 276.595L631.384 273.661C631.587 273.625 631.782 273.761 631.819 273.964C631.853 274.169 631.717 274.363 631.513 274.399Z" fill="#0E1F28"/>
<path d="M631.84 276.256L615.194 279.191C614.991 279.227 614.797 279.091 614.76 278.887C614.724 278.683 614.861 278.488 615.065 278.452L631.711 275.517C631.915 275.482 632.109 275.617 632.146 275.821C632.181 276.026 632.044 276.22 631.84 276.256Z" fill="#0E1F28"/>
<path d="M632.167 278.111L615.521 281.047C615.319 281.083 615.124 280.946 615.087 280.743C615.052 280.539 615.188 280.343 615.392 280.308L632.038 277.373C632.242 277.337 632.436 277.473 632.473 277.677C632.51 277.881 632.371 278.076 632.167 278.111Z" fill="#0E1F28"/>
<path d="M632.494 279.967L615.848 282.903C615.645 282.939 615.451 282.802 615.414 282.598C615.379 282.394 615.515 282.199 615.719 282.163L632.365 279.229C632.569 279.193 632.763 279.329 632.8 279.532C632.835 279.737 632.698 279.931 632.494 279.967Z" fill="#0E1F28"/>
<path d="M632.821 281.823L616.175 284.758C615.973 284.794 615.778 284.658 615.742 284.454C615.706 284.25 615.842 284.055 616.046 284.019L632.692 281.085C632.896 281.049 633.09 281.184 633.127 281.388C633.162 281.593 633.025 281.787 632.821 281.823Z" fill="#0E1F28"/>
<path d="M633.148 283.679L616.502 286.614C616.299 286.65 616.105 286.513 616.069 286.31C616.033 286.106 616.169 285.911 616.373 285.875L633.019 282.94C633.223 282.904 633.417 283.04 633.454 283.244C633.491 283.448 633.353 283.643 633.148 283.679Z" fill="#0E1F28"/>
<path d="M633.477 285.534L616.831 288.47C616.628 288.506 616.433 288.369 616.397 288.165C616.361 287.961 616.497 287.766 616.701 287.73L633.347 284.796C633.551 284.76 633.745 284.896 633.782 285.099C633.816 285.304 633.68 285.498 633.477 285.534Z" fill="#0E1F28"/>
<path d="M622.56 281.406L627.229 307.891L630.394 307.333L625.725 280.848L622.56 281.406Z" fill="#0E1F28"/>
<path d="M614.646 261.348L619.67 289.84C619.766 290.384 620.284 290.747 620.828 290.652L630.466 288.952C631.009 288.856 631.372 288.337 631.277 287.793L626.254 259.301C626.157 258.757 625.639 258.394 625.095 258.49L615.458 260.189C614.913 260.285 614.55 260.804 614.646 261.348Z" fill="#FFD933"/>
<path d="M622.826 258.89L628.197 289.352L630.466 288.952C631.009 288.856 631.372 288.337 631.277 287.793L626.254 259.301C626.157 258.757 625.639 258.394 625.095 258.49L622.826 258.89Z" fill="#E8C223"/>
<path d="M624.262 295.229L626.804 312.875C627.035 314.478 628.546 315.571 630.142 315.29C631.737 315.009 632.784 313.464 632.452 311.879L628.806 294.429C628.696 293.901 628.185 293.555 627.654 293.649L625.077 294.103C624.546 294.196 624.185 294.695 624.262 295.229Z" fill="#FFD933"/>
<path d="M618.35 263.327L616.455 263.661C616.251 263.696 616.057 263.56 616.02 263.356C615.984 263.152 616.121 262.958 616.325 262.922L618.219 262.588C618.423 262.552 618.617 262.688 618.654 262.892C618.689 263.097 618.553 263.291 618.35 263.327Z" fill="#0E1F28"/>
<path d="M618.677 265.183L616.782 265.517C616.578 265.553 616.384 265.417 616.347 265.213C616.311 265.009 616.448 264.815 616.652 264.779L618.546 264.445C618.75 264.409 618.944 264.545 618.981 264.748C619.017 264.953 618.88 265.146 618.677 265.183Z" fill="#0E1F28"/>
<path d="M619.004 267.038L617.109 267.372C616.905 267.408 616.711 267.271 616.674 267.067C616.638 266.864 616.775 266.669 616.979 266.634L618.873 266.3C619.077 266.264 619.271 266.399 619.308 266.603C619.344 266.808 619.207 267.002 619.004 267.038Z" fill="#0E1F28"/>
<path d="M619.331 268.895L617.436 269.229C617.232 269.264 617.038 269.128 617.001 268.924C616.966 268.72 617.102 268.526 617.306 268.49L619.2 268.156C619.404 268.12 619.598 268.256 619.635 268.46C619.671 268.665 619.535 268.858 619.331 268.895Z" fill="#0E1F28"/>
<path d="M619.658 270.749L617.763 271.083C617.559 271.119 617.365 270.983 617.328 270.779C617.293 270.575 617.429 270.381 617.633 270.345L619.527 270.011C619.731 269.975 619.925 270.111 619.962 270.314C619.998 270.519 619.862 270.714 619.658 270.749Z" fill="#0E1F28"/>
<path d="M619.985 272.605L618.09 272.939C617.887 272.975 617.692 272.838 617.656 272.635C617.62 272.431 617.756 272.236 617.96 272.201L619.855 271.867C620.058 271.831 620.253 271.966 620.289 272.17C620.325 272.375 620.189 272.569 619.985 272.605Z" fill="#0E1F28"/>
<path d="M620.313 274.462L618.418 274.796C618.215 274.831 618.02 274.695 617.984 274.491C617.948 274.287 618.084 274.093 618.288 274.057L620.183 273.723C620.386 273.688 620.581 273.823 620.618 274.027C620.652 274.232 620.517 274.426 620.313 274.462Z" fill="#0E1F28"/>
<path d="M620.64 276.316L618.744 276.65C618.542 276.686 618.347 276.55 618.311 276.346C618.275 276.142 618.41 275.948 618.615 275.912L620.51 275.578C620.713 275.542 620.908 275.678 620.944 275.882C620.979 276.086 620.844 276.281 620.64 276.316Z" fill="#0E1F28"/>
<path d="M620.967 278.173L619.072 278.507C618.869 278.543 618.675 278.406 618.638 278.203C618.602 277.999 618.738 277.805 618.942 277.769L620.837 277.435C621.041 277.399 621.235 277.534 621.272 277.738C621.307 277.943 621.171 278.137 620.967 278.173Z" fill="#0E1F28"/>
<path d="M621.294 280.029L619.399 280.363C619.196 280.399 619.002 280.262 618.965 280.058C618.929 279.854 619.065 279.66 619.269 279.624L621.164 279.29C621.368 279.255 621.562 279.39 621.599 279.594C621.635 279.799 621.498 279.993 621.294 280.029Z" fill="#0E1F28"/>
<path d="M621.621 281.884L619.726 282.218C619.523 282.254 619.329 282.118 619.292 281.914C619.256 281.71 619.392 281.516 619.596 281.48L621.491 281.146C621.695 281.11 621.889 281.246 621.926 281.45C621.963 281.654 621.825 281.849 621.621 281.884Z" fill="#0E1F28"/>
<path d="M621.948 283.74L620.053 284.074C619.85 284.11 619.656 283.973 619.619 283.77C619.583 283.566 619.719 283.372 619.923 283.336L621.818 283.002C622.022 282.966 622.216 283.101 622.253 283.305C622.289 283.51 622.152 283.704 621.948 283.74Z" fill="#0E1F28"/>
<path d="M622.275 285.596L620.38 285.93C620.177 285.966 619.983 285.829 619.946 285.625C619.91 285.422 620.046 285.227 620.25 285.191L622.145 284.857C622.349 284.822 622.543 284.957 622.58 285.161C622.616 285.366 622.479 285.56 622.275 285.596Z" fill="#0E1F28"/>
<path d="M622.603 287.451L620.708 287.785C620.505 287.821 620.311 287.685 620.274 287.481C620.238 287.277 620.374 287.083 620.579 287.047L622.473 286.713C622.677 286.677 622.871 286.813 622.908 287.017C622.943 287.221 622.807 287.416 622.603 287.451Z" fill="#0E1F28"/>
<path d="M625.344 262.094L623.449 262.428C623.246 262.463 623.052 262.327 623.015 262.123C622.979 261.919 623.114 261.725 623.319 261.689L625.214 261.355C625.418 261.319 625.612 261.455 625.649 261.659C625.684 261.864 625.548 262.058 625.344 262.094Z" fill="#0E1F28"/>
<path d="M625.671 263.949L623.777 264.283C623.573 264.319 623.379 264.183 623.342 263.979C623.306 263.775 623.443 263.581 623.646 263.545L625.541 263.211C625.745 263.175 625.939 263.311 625.976 263.514C626.012 263.719 625.875 263.913 625.671 263.949Z" fill="#0E1F28"/>
<path d="M625.998 265.805L624.103 266.139C623.9 266.175 623.706 266.038 623.669 265.834C623.633 265.631 623.769 265.436 623.973 265.401L625.868 265.067C626.072 265.031 626.266 265.166 626.303 265.37C626.339 265.575 626.202 265.769 625.998 265.805Z" fill="#0E1F28"/>
<path d="M626.325 267.661L624.431 267.995C624.227 268.03 624.033 267.894 623.996 267.69C623.96 267.486 624.097 267.292 624.301 267.256L626.195 266.922C626.399 266.887 626.593 267.022 626.63 267.226C626.666 267.431 626.529 267.625 626.325 267.661Z" fill="#0E1F28"/>
<path d="M626.652 269.516L624.757 269.85C624.554 269.886 624.36 269.75 624.323 269.546C624.287 269.342 624.423 269.148 624.627 269.112L626.522 268.778C626.726 268.742 626.92 268.878 626.957 269.082C626.994 269.286 626.856 269.48 626.652 269.516Z" fill="#0E1F28"/>
<path d="M626.98 271.372L625.085 271.706C624.881 271.742 624.687 271.605 624.65 271.402C624.614 271.198 624.751 271.004 624.955 270.968L626.849 270.634C627.053 270.598 627.247 270.733 627.284 270.937C627.32 271.142 627.184 271.336 626.98 271.372Z" fill="#0E1F28"/>
<path d="M627.308 273.229L625.412 273.563C625.209 273.599 625.015 273.462 624.978 273.258C624.942 273.054 625.078 272.86 625.283 272.824L627.177 272.49C627.381 272.455 627.575 272.59 627.612 272.794C627.647 272.999 627.511 273.192 627.308 273.229Z" fill="#0E1F28"/>
<path d="M627.635 275.083L625.74 275.417C625.536 275.453 625.342 275.317 625.305 275.113C625.269 274.909 625.406 274.715 625.61 274.679L627.504 274.345C627.708 274.309 627.902 274.445 627.939 274.649C627.976 274.853 627.838 275.048 627.635 275.083Z" fill="#0E1F28"/>
<path d="M627.962 276.939L626.066 277.273C625.863 277.309 625.669 277.172 625.632 276.969C625.597 276.765 625.732 276.571 625.937 276.535L627.831 276.201C628.035 276.165 628.229 276.3 628.266 276.504C628.302 276.709 628.166 276.903 627.962 276.939Z" fill="#0E1F28"/>
<path d="M628.289 278.796L626.394 279.13C626.191 279.166 625.996 279.029 625.96 278.825C625.924 278.621 626.06 278.427 626.264 278.391L628.159 278.057C628.362 278.022 628.558 278.157 628.593 278.361C628.629 278.566 628.493 278.76 628.289 278.796Z" fill="#0E1F28"/>
<path d="M628.616 280.65L626.72 280.984C626.518 281.02 626.323 280.884 626.286 280.68C626.251 280.476 626.386 280.282 626.591 280.246L628.485 279.912C628.689 279.876 628.884 280.012 628.92 280.216C628.956 280.42 628.82 280.615 628.616 280.65Z" fill="#0E1F28"/>
<path d="M628.943 282.507L627.048 282.841C626.845 282.877 626.65 282.74 626.614 282.537C626.578 282.333 626.714 282.139 626.918 282.103L628.813 281.769C629.016 281.733 629.212 281.869 629.247 282.072C629.283 282.277 629.147 282.471 628.943 282.507Z" fill="#0E1F28"/>
<path d="M629.271 284.362L627.375 284.696C627.173 284.732 626.978 284.595 626.942 284.391C626.906 284.188 627.041 283.993 627.246 283.957L629.141 283.623C629.344 283.588 629.539 283.723 629.575 283.927C629.61 284.132 629.475 284.326 629.271 284.362Z" fill="#0E1F28"/>
<path d="M629.598 286.219L627.704 286.553C627.5 286.588 627.306 286.452 627.269 286.248C627.233 286.044 627.369 285.85 627.573 285.814L629.468 285.48C629.672 285.444 629.867 285.58 629.903 285.784C629.938 285.988 629.802 286.183 629.598 286.219Z" fill="#0E1F28"/>
<path d="M620.776 262.177C620.568 262.213 620.428 262.411 620.465 262.619C620.501 262.827 620.7 262.966 620.908 262.93C621.116 262.893 621.255 262.695 621.218 262.487C621.183 262.279 620.984 262.14 620.776 262.177Z" fill="#0E1F28"/>
<path d="M621.102 264.025C620.894 264.061 620.755 264.259 620.792 264.467C620.828 264.675 621.026 264.815 621.234 264.778C621.442 264.742 621.582 264.543 621.545 264.335C621.508 264.127 621.31 263.988 621.102 264.025Z" fill="#0E1F28"/>
<path d="M621.428 265.874C621.22 265.91 621.081 266.109 621.117 266.317C621.154 266.525 621.352 266.664 621.56 266.627C621.768 266.591 621.906 266.393 621.871 266.185C621.834 265.977 621.636 265.837 621.428 265.874Z" fill="#0E1F28"/>
<path d="M621.754 267.723C621.546 267.76 621.407 267.958 621.443 268.166C621.48 268.374 621.678 268.513 621.886 268.476C622.094 268.44 622.232 268.242 622.197 268.034C622.16 267.826 621.962 267.687 621.754 267.723Z" fill="#0E1F28"/>
<path d="M622.08 269.571C621.872 269.608 621.733 269.806 621.769 270.014C621.806 270.222 622.004 270.361 622.212 270.325C622.42 270.288 622.558 270.09 622.523 269.882C622.486 269.674 622.288 269.535 622.08 269.571Z" fill="#0E1F28"/>
<path d="M622.406 271.42C622.198 271.457 622.058 271.655 622.094 271.863C622.132 272.071 622.33 272.21 622.538 272.174C622.746 272.137 622.884 271.939 622.847 271.731C622.813 271.523 622.614 271.384 622.406 271.42Z" fill="#0E1F28"/>
<path d="M622.731 273.27C622.523 273.306 622.384 273.504 622.42 273.712C622.457 273.92 622.656 274.06 622.863 274.023C623.072 273.986 623.21 273.788 623.174 273.58C623.138 273.372 622.94 273.232 622.731 273.27Z" fill="#0E1F28"/>
<path d="M623.058 275.118C622.85 275.154 622.711 275.352 622.748 275.56C622.784 275.768 622.982 275.908 623.19 275.871C623.398 275.835 623.537 275.636 623.501 275.428C623.464 275.22 623.266 275.081 623.058 275.118Z" fill="#0E1F28"/>
<path d="M623.384 276.967C623.176 277.004 623.037 277.202 623.072 277.41C623.11 277.618 623.308 277.757 623.516 277.72C623.724 277.684 623.862 277.486 623.827 277.278C623.79 277.07 623.592 276.93 623.384 276.967Z" fill="#0E1F28"/>
<path d="M623.71 278.815C623.502 278.852 623.363 279.05 623.399 279.258C623.437 279.466 623.634 279.605 623.842 279.568C624.05 279.532 624.189 279.334 624.153 279.126C624.116 278.918 623.918 278.779 623.71 278.815Z" fill="#0E1F28"/>
<path d="M624.036 280.664C623.828 280.701 623.688 280.899 623.724 281.107C623.762 281.315 623.96 281.454 624.168 281.418C624.376 281.381 624.514 281.183 624.478 280.975C624.442 280.767 624.244 280.628 624.036 280.664Z" fill="#0E1F28"/>
<path d="M624.362 282.513C624.154 282.55 624.014 282.748 624.05 282.956C624.087 283.164 624.286 283.303 624.494 283.267C624.702 283.23 624.84 283.032 624.804 282.824C624.768 282.616 624.57 282.477 624.362 282.513Z" fill="#0E1F28"/>
<path d="M624.688 284.362C624.48 284.398 624.341 284.596 624.377 284.804C624.414 285.012 624.612 285.152 624.82 285.115C625.028 285.078 625.168 284.88 625.131 284.672C625.094 284.464 624.896 284.325 624.688 284.362Z" fill="#0E1F28"/>
<path d="M625.014 286.211C624.806 286.247 624.667 286.445 624.703 286.653C624.74 286.862 624.938 287.001 625.146 286.964C625.354 286.928 625.492 286.729 625.457 286.521C625.42 286.313 625.222 286.174 625.014 286.211Z" fill="#0E1F28"/>
<path d="M624.465 315.241C623.324 315.054 622.444 314.137 622.305 312.99L620.529 290.737C620.48 290.106 620.794 289.512 621.326 289.169C621.785 288.875 622.251 288.457 622.254 287.975C622.267 286.329 622.415 285.098 622.415 285.098H624.466V315.241H624.465Z" fill="#DAE1E7"/>
<path d="M620.546 290.477L624.465 295.255V285.099H622.414C622.414 285.099 622.266 286.33 622.253 287.976C622.25 288.457 621.784 288.875 621.325 289.169C620.868 289.464 620.588 289.948 620.546 290.477Z" fill="#B0BAC1"/>
<path d="M639.032 309.939C639.785 309.062 639.869 307.794 639.239 306.826L626.296 288.638C625.928 288.123 625.305 287.869 624.678 287.949C624.137 288.017 623.512 287.997 623.2 287.63C622.132 286.377 621.227 285.53 621.227 285.53L619.656 286.848L639.032 309.939Z" fill="#DAE1E7"/>
<path d="M623.542 290.043C623.952 289.894 624.163 289.439 624.014 289.029C623.865 288.619 623.411 288.408 623.001 288.558C622.591 288.707 622.38 289.16 622.528 289.57C622.678 289.981 623.132 290.191 623.542 290.043Z" fill="#03051E"/>
<path d="M615.478 284.73L615.499 284.723C615.74 284.635 615.988 284.579 616.235 284.554C616.799 284.496 617.351 284.753 617.722 285.182L619.479 287.204L621.664 285.372L619.246 282.557C618.873 282.123 618.698 281.533 618.847 280.98C618.847 280.977 618.848 280.974 618.849 280.971C619.164 279.809 619.135 278.522 618.683 277.281C617.723 274.643 615.174 273.064 612.643 273.352C611.913 273.436 611.205 273.11 610.781 272.51C610.117 271.57 609.103 270.497 607.653 269.829C607.302 270.591 607.531 271.482 608.181 272.01C608.511 272.277 608.799 272.568 609.048 272.858C609.661 273.575 609.672 274.609 609.089 275.35C607.888 276.877 607.492 279.043 608.235 281.084C609.348 284.143 612.598 285.779 615.478 284.73ZM611.979 275.12C614.041 274.37 616.381 275.582 617.197 277.822C618.011 280.062 616.998 282.495 614.937 283.245C612.874 283.996 610.535 282.784 609.719 280.544C608.904 278.304 609.918 275.871 611.979 275.12Z" fill="#43D8C9"/>
<path d="M619.595 274.033C619.595 274.033 617.67 274.843 617.726 275.473C617.8 276.322 619.714 276.906 619.714 276.906C619.714 276.906 619.313 275.441 619.595 274.033Z" fill="#43D8C9"/>
<path d="M624.918 285.225L624.961 282.67C624.974 281.943 625.361 281.256 626.009 280.925C626.136 280.861 626.268 280.803 626.405 280.754C626.411 280.751 626.42 280.748 626.426 280.746C629.307 279.698 630.742 276.356 629.63 273.297C628.517 270.239 625.268 268.602 622.388 269.651C619.507 270.699 618.07 274.041 619.183 277.1C619.622 278.308 620.395 279.293 621.346 279.98C621.35 279.982 621.353 279.984 621.356 279.986C621.858 280.351 622.116 280.967 622.109 281.587L622.068 285.225H624.918ZM622.928 271.136C624.99 270.386 627.33 271.598 628.146 273.837C628.96 276.077 627.947 278.511 625.886 279.261C623.823 280.011 621.483 278.799 620.668 276.559C619.853 274.319 620.865 271.886 622.928 271.136Z" fill="#43D8C9"/>
<path d="M633.845 312.761V280.369H607.488V312.761C607.488 314.97 609.279 316.761 611.488 316.761H629.845C632.054 316.761 633.845 314.97 633.845 312.761Z" fill="#0E1F28"/>
<path d="M640.188 316.446C640.906 316.142 641.516 315.635 641.948 314.997C641.516 315.636 640.905 316.143 640.188 316.446Z" fill="#071419"/>
<path d="M638.63 316.761C639.183 316.761 639.709 316.649 640.188 316.447C639.709 316.648 639.183 316.761 638.63 316.761Z" fill="#071419"/>
<path d="M642.63 280.369V312.761C642.63 313.589 642.378 314.359 641.947 314.997C642.378 314.358 642.63 313.589 642.63 312.761V280.369Z" fill="#071419"/>
<path d="M642.63 280.369H633.845V312.761C633.845 314.97 632.054 316.761 629.845 316.761H638.63C639.183 316.761 639.709 316.649 640.188 316.447C640.906 316.143 641.516 315.636 641.948 314.998C642.379 314.359 642.631 313.59 642.631 312.762V280.369H642.63Z" fill="#071419"/>
<path d="M573.314 398.898C566.891 394.31 557.715 401.651 557.715 401.651C557.715 401.651 568.827 397.093 577.289 410.214L573.314 398.898Z" fill="#5C7C0E"/>
<path d="M572.091 445.693C572.091 432.221 577.29 413.884 573.315 398.898C573.315 398.898 582.489 405.627 585.243 420.307C587.996 434.988 588.302 462.208 594.724 470.772C594.724 470.772 572.091 460.067 572.091 445.693Z" fill="#76A21E"/>
<path d="M617.356 519.137C617.356 519.137 614.603 518.179 609.404 492.793C604.204 467.408 595.946 463.126 585.853 458.232C575.76 453.338 572.089 445.693 572.089 445.693C572.089 445.693 572.396 458.538 582.793 469.243C593.193 479.948 596.863 479.336 600.839 488.512C604.816 497.687 606.651 507.25 615.52 519.137H617.356Z" fill="#5C7C0E"/>
<path d="M624.605 453.276C624.605 453.276 619.802 468.937 619.497 478.724C619.192 488.511 619.803 504.191 617.356 519.136C617.356 519.136 612.768 488.817 608.793 476.889C604.816 464.961 615.032 452.601 624.605 453.276Z" fill="#5C7C0E"/>
<path d="M614.962 462.82C629.18 449.415 627.449 452.727 619.981 439.576C617.47 435.156 621.711 425.055 621.562 420.613C621.266 411.839 618.991 408.858 619.803 401.344C621.026 390.028 615.521 382.381 615.521 382.381C615.521 382.381 615.521 390.945 606.958 403.802C598.395 416.657 603.899 428.565 602.37 447.528C600.841 466.49 601.759 475.36 608.433 488.437C615.107 501.515 615.521 519.136 615.521 519.136H617.357C615.827 476.359 608.475 468.938 614.962 462.82Z" fill="#76A21E"/>
<path d="M674.675 420.613C678.651 421.837 676.51 436.517 676.51 436.517C676.51 436.517 672.228 422.142 663.97 422.142L674.675 420.613Z" fill="#5C7C0E"/>
<path d="M616.258 519.137C616.258 519.137 620.919 505.333 621.8 496.77C622.681 488.207 613.199 483.006 624.21 467.714C635.221 452.422 633.691 452.728 637.973 437.129C642.255 421.531 644.702 422.143 655.712 420.613C666.723 419.084 674.675 420.613 674.675 420.613C674.675 420.613 664.277 423.977 660.3 428.259C656.324 432.541 656.324 443.551 652.96 454.562C649.596 465.573 639.809 471.73 637.973 482.415C636.138 493.1 628.493 499.828 625.128 504.722C621.763 509.616 618.399 519.137 618.399 519.137H616.258Z" fill="#76A21E"/>
<path d="M637.973 482.415C639.809 471.73 649.596 465.573 652.96 454.562C656.324 443.551 656.324 432.541 660.3 428.259C660.957 427.552 661.791 426.87 662.723 426.224C662.722 426.224 652.348 428.871 648.984 434.834C645.62 440.799 645.008 452.727 643.479 459.761C641.95 466.795 637.362 474.136 629.104 478.724C620.846 483.311 627.44 501.719 625.128 504.721C628.492 499.828 636.138 493.1 637.973 482.415Z" fill="#5C7C0E"/>
<path d="M616.258 519.137C616.258 519.137 605.505 485.759 591.053 480.713C576.602 475.666 581.19 493.787 574.767 500.899C568.344 508.011 563.069 507.092 562.61 516.726C562.151 526.361 570.868 534.619 570.868 534.619C570.868 534.619 564.905 520.626 571.097 516.497C577.29 512.368 581.878 511.035 586.466 507.228C591.053 503.422 589.677 495.546 595.641 494.323C601.605 493.1 615.521 519.137 615.521 519.137H616.258Z" fill="#76A21E"/>
<path d="M615.521 519.137C615.521 519.137 612.649 496.276 604.817 490.347C596.985 484.418 591.854 497 591.854 497C591.854 497 596.404 492.739 601.428 497.99C607.737 504.586 614.68 519.136 614.68 519.136H615.521V519.137Z" fill="#5C7C0E"/>
<path d="M571.097 516.496C577.29 512.367 581.878 511.034 586.466 507.227C586.764 506.98 587.035 506.714 587.287 506.436C586.466 507.227 578.552 505.83 572.817 509.958C567.082 514.087 564.788 522.689 570.867 534.617C570.867 534.618 564.903 520.625 571.097 516.496Z" fill="#5C7C0E"/>
<path d="M617.356 519.137C617.356 519.137 616.269 502.756 625.108 495.175C633.948 487.594 635.994 469.654 641.966 464.517C647.94 459.38 663.969 464.517 663.969 464.517C663.969 464.517 656.427 468.785 655.051 473.831C653.675 478.877 652.298 492.411 647.482 497.458C642.665 502.504 623.167 504.382 621.332 507.228C619.497 510.074 618.398 519.137 618.398 519.137" fill="#5C7C0E"/>
<path d="M641.967 464.517C641.967 464.517 645.876 459.61 653.676 460.756C661.475 461.903 665.374 464.226 665.833 465.473C666.292 466.72 662.107 476.21 663.97 479.838C665.833 483.465 662.723 490.686 662.723 490.686C662.723 490.686 659.644 481.028 653.792 479.838C647.94 478.648 649.527 461.167 641.967 464.517Z" fill="#76A21E"/>
<path d="M636.091 488.759C638.003 482.126 635.833 475.777 637.891 470.776C634.457 478.345 631.634 489.58 625.109 495.175C623.909 496.205 622.896 497.401 622.034 498.693C623.292 496.537 634.178 495.394 636.091 488.759Z" fill="#76A21E"/>
<path d="M598.034 506.521L600.062 533.789C600.358 537.769 603.673 540.848 607.665 540.848H627.018C631.008 540.848 634.325 537.77 634.621 533.789L636.649 506.521H598.034Z" fill="#DAE1E7"/>
<path d="M618.506 540.847H627.018C631.008 540.847 634.325 537.769 634.621 533.788L636.649 506.52H629.687C627.724 515.089 623.921 529.588 618.506 540.847Z" fill="#929AAB"/>
<path d="M598.586 513.945H636.096" stroke="#929AAB" stroke-miterlimit="10"/>
<path d="M102.714 540.847H697.286" stroke="#0E1F28" stroke-miterlimit="10"/>
</svg>
