<svg width="1441" height="295" viewBox="0 0 1441 295" fill="none" xmlns="http://www.w3.org/2000/svg">
<path fill-rule="evenodd" clip-rule="evenodd" d="M0.601318 130.954L20.4436 138.072C40.286 152.306 84.9312 173.657 124.616 173.657C164.3 180.774 203.985 166.54 248.63 145.189C288.315 130.954 328 109.603 367.684 109.603C412.329 109.603 452.014 130.954 471.856 138.072L493.601 148.143L491.699 2.84656H471.856C452.014 2.84656 412.329 2.84656 367.684 2.84656C328 2.84656 288.315 2.84656 248.63 2.84656C203.985 2.84656 164.3 2.84656 124.616 2.84656C84.9312 2.84656 40.286 2.84656 20.4436 2.84656H0.601318V130.954Z" fill="#FFD8E2"/>
<path fill-rule="evenodd" clip-rule="evenodd" d="M493.601 148.143L500.101 148.944L506.601 149.745L513.101 150.546L519.601 151.347L552.601 150.347C577.101 151.347 621.678 184.775 664.208 184.775C706.737 192.101 749.267 177.448 797.112 155.469C839.642 140.816 882.171 118.837 924.7 118.837C972.546 118.837 1015.08 140.816 1036.34 148.143L1057.6 162.796L1056.09 2.84656H1036.34C1015.08 2.84656 972.546 2.84656 924.7 2.84656C882.171 2.84656 839.642 2.84656 797.112 2.84656C749.267 2.84656 704.997 2.84656 662.468 2.84656C619.939 2.84656 573.833 2.84656 552.568 2.84656H491.699L493.601 148.143Z" fill="#FFD8E2"/>
<path fill-rule="evenodd" clip-rule="evenodd" d="M981.476 167.891L989.317 172.664L997.158 177.437C1010.08 195.145 1048.12 227.364 1079.49 227.364C1110.85 236.909 1142.21 217.818 1177.5 189.182C1208.86 170.092 1240.23 141.456 1271.59 141.456C1306.87 141.456 1338.24 170.092 1353.92 179.637L1369.6 198.728V109.491V2.84656H1353.92C1338.24 2.84656 1281.19 2.84656 1245.91 2.84656C1214.55 2.84656 1209.34 2.84656 1177.97 2.84656C1142.69 2.84656 1110.43 2.84656 1079.07 2.84656C1047.71 2.84656 1012.33 2.84656 996.648 2.84656H981.476V167.891Z" fill="#FFD8E2"/>
<path fill-rule="evenodd" clip-rule="evenodd" d="M1439.99 294.211L1410.06 261.797C1380.13 229.384 1320.26 164.556 1260.29 153.646C1200.31 142.735 1140.22 185.74 1080.21 191.004C1020.2 196.268 960.267 163.791 900.314 142.097C840.36 120.403 780.383 109.492 720.361 120.147C660.338 130.803 600.27 163.025 540.282 157.506C480.294 151.987 420.386 108.726 360.432 87.0319C300.479 65.3377 240.479 65.2101 180.434 86.6492C120.388 108.088 60.2973 151.094 30.2517 172.597L0.206138 194.099L0.618238 -2.95089e-06L30.618 0.0637895C60.6179 0.127582 120.617 0.255167 180.617 0.382751C240.616 0.510336 300.616 0.637921 360.615 0.765505C420.615 0.89309 480.614 1.02067 540.614 1.14826C600.614 1.27584 660.613 1.40343 720.613 1.53101C780.612 1.6586 840.612 1.78618 900.611 1.91377C960.611 2.04135 1020.61 2.16894 1080.61 2.29652C1140.61 2.42411 1200.61 2.55169 1260.61 2.67928C1320.61 2.80686 1380.61 2.93445 1410.61 2.99824L1440.61 3.06203L1439.99 294.211Z" fill="#FFE5EC"/>
</svg>
