<svg width="1441" height="246" viewBox="0 0 1441 246" fill="none" xmlns="http://www.w3.org/2000/svg">
<path fill-rule="evenodd" clip-rule="evenodd" d="M0 70L19.5 76.6667C39 83.3333 78 96.6667 117 93.3333C156 90 195 70 234 73.3333C273 76.6667 312 103.333 351 110C390 116.667 429 103.333 448.5 96.6667L468 90V150H448.5C429 150 390 150 351 150C312 150 273 150 234 150C195 150 156 150 117 150C78 150 39 150 19.5 150H0V70Z" fill="#FFD8E2"/>
<path fill-rule="evenodd" clip-rule="evenodd" d="M455 70L478.708 76.6667C502.417 83.3333 549.833 96.6667 597.25 93.3333C644.667 90 692.083 70 739.5 73.3333C786.917 76.6667 834.333 103.333 881.75 110C929.167 116.667 976.583 103.333 1000.29 96.6667L1024 90V150H1000.29C976.583 150 929.167 150 881.75 150C834.333 150 786.917 150 739.5 150C692.083 150 644.667 150 597.25 150C549.833 150 502.417 150 478.708 150H455V70Z" fill="#FFD8E2"/>
<path fill-rule="evenodd" clip-rule="evenodd" d="M970 76.8893L989.625 82.4077C1009.25 87.9262 1048.5 98.9631 1087.75 96.2039C1127 93.4446 1166.25 76.8893 1205.5 79.6485C1244.75 82.4077 1284 104.482 1323.25 110C1362.5 115.518 1401.75 104.482 1421.37 98.9631L1441 93.4446V143.111H1421.37C1401.75 143.111 1362.5 143.111 1323.25 143.111C1284 143.111 1244.75 143.111 1205.5 143.111C1166.25 143.111 1127 143.111 1087.75 143.111C1048.5 143.111 1009.25 143.111 989.625 143.111H970V76.8893Z" fill="#FFD8E2"/>
<path fill-rule="evenodd" clip-rule="evenodd" d="M1 0L35.8 35.1429C69.4 70.2857 137.8 140.571 206.2 134.714C275.8 128.857 344.2 46.8571 412.6 46.8571C481 46.8571 549.4 128.857 617.8 146.429C686.2 164 755.8 117.143 824.2 93.7143C892.6 70.2857 961 70.2857 1029.4 82C1097.8 93.7143 1166.2 117.143 1235.8 128.857C1304.2 140.571 1372.6 140.571 1406.2 140.571H1441V246H1406.2C1372.6 246 1304.2 246 1235.8 246C1166.2 246 1097.8 246 1029.4 246C961 246 892.6 246 824.2 246C755.8 246 686.2 246 617.8 246C549.4 246 481 246 412.6 246C344.2 246 275.8 246 206.2 246C137.8 246 69.4 246 35.8 246H1V0Z" fill="#FFE5EC"/>
</svg>
