<svg width="1439" height="208" viewBox="0 0 1439 208" fill="none" xmlns="http://www.w3.org/2000/svg">
<path fill-rule="evenodd" clip-rule="evenodd" d="M-2 63.1976L58.0417 82.4986C118.083 101.8 238.167 140.402 358.25 121.101C478.333 101.8 598.417 24.5955 718.5 5.29451C838.583 -14.0065 958.667 24.5955 1078.75 39.0713C1198.83 53.5471 1318.92 43.8966 1378.96 39.0713L1439 34.2461V207.955H1378.96C1318.92 207.955 1198.83 207.955 1078.75 207.955C958.667 207.955 838.583 207.955 718.5 207.955C598.417 207.955 478.333 207.955 358.25 207.955C238.167 207.955 118.083 207.955 58.0417 207.955H-2V63.1976Z" fill="#FFC4D2"/>
</svg>
